<svg width="160" height="44" viewBox="0 0 160 44" fill="none" xmlns="http://www.w3.org/2000/svg">
<path d="M42.1123 8.81445V34.8816H36.8249V8.81445H42.1123Z" fill="#606060"/>
<path d="M63.6926 17.3061V34.9394C63.6926 40.4128 59.454 43.7777 54.2672 43.7777C49.2672 43.7777 45.5316 40.6583 45.1724 36.2536L50.4454 36.2825C50.6609 38.1599 52.2988 38.9686 54.454 38.9686C56.4943 38.9686 58.3908 37.8711 58.3908 35.0116V32.7587C57.0402 33.6396 55.3161 34.1595 53.3908 34.1595C48.5632 34.1595 44.6982 30.2314 44.6982 25.7112C44.6982 20.4544 48.5776 16.9307 53.3908 16.9307C55.3305 16.9307 57.0402 17.4506 58.3908 18.3315V17.3784L63.6926 17.3061ZM58.4052 27.6897V23.4005C57.3276 21.8264 55.8333 21.3065 54.3534 21.3065C51.7529 21.3065 49.9425 23.0539 49.9425 25.7112C49.9425 27.6608 51.7529 29.7982 54.3534 29.7982C55.8333 29.7837 57.3276 29.2494 58.4052 27.6897Z" fill="#606060"/>
<path d="M84.7852 25.885C84.7852 31.315 80.791 35.1854 75.4317 35.1854C70.0294 35.1854 66.0352 31.315 66.0352 25.885C66.0352 20.4982 70.0294 16.5557 75.4317 16.5557C80.791 16.5557 84.7852 20.4982 84.7852 25.885ZM79.6846 25.885C79.6846 23.3288 78.018 21.2636 75.4317 21.2636C72.8168 21.2636 71.1501 23.3288 71.1501 25.885C71.1501 28.5133 72.8168 30.4774 75.4317 30.4774C78.0036 30.463 79.6846 28.5133 79.6846 25.885Z" fill="#606060"/>
<path d="M117.616 17.3348V34.8525L112.429 34.8814V33.885C111.079 34.7659 109.355 35.3147 107.429 35.3147C102.602 35.3147 98.7368 31.1988 98.7368 26.1298C98.7368 21.0319 102.616 16.916 107.429 16.916C109.369 16.916 111.079 17.4648 112.429 18.3457V17.3493L117.616 17.3348ZM112.429 28.8159V23.4436C111.337 21.8839 109.814 21.4507 108.291 21.4507C105.633 21.4507 103.794 23.5881 103.794 26.1442C103.794 28.6715 105.633 30.8089 108.291 30.8089C109.814 30.7944 111.337 30.3756 112.429 28.8159Z" fill="#606060"/>
<path d="M138.937 25.3646V34.8816H133.836V25.9856C133.836 23.1261 132.414 21.6098 129.885 21.6098C128.563 21.6098 127.112 22.3752 125.862 23.8482V34.8816H120.647V17.3639H125.862V18.6925C127.285 17.5517 128.937 16.9307 130.905 16.9307C135.561 16.9307 138.937 20.2234 138.937 25.3646Z" fill="#606060"/>
<path d="M34.411 34.8672H29.0231L25.5173 21.7686L17.9742 34.8672H11.9541L23.592 14.5911L21.7242 7.54359L6.02013 34.8816H0L19.8995 0.22168H25.1725L27.4857 8.8289H32.9311L29.2099 15.3276L34.411 34.8672Z" fill="#606060"/>
<path d="M160 8.81425V34.8814H154.713V33.8849C153.362 34.7659 151.638 35.3147 149.713 35.3147C144.885 35.3147 141.02 31.1988 141.02 26.1009C141.02 21.0319 144.899 16.916 149.713 16.916C151.652 16.916 153.362 17.4648 154.713 18.3457V8.7998L160 8.81425ZM154.713 28.8304V23.4147C153.606 21.8406 152.069 21.4074 150.546 21.4074C147.873 21.4074 146.02 23.5592 146.02 26.1009C146.02 28.6859 147.873 30.8378 150.546 30.8378C152.069 30.8378 153.606 30.4045 154.713 28.8304Z" fill="#606060"/>
<path d="M97.7878 21.7825C96.6384 21.9269 93.9372 22.0569 92.3568 24.252V34.8955H87.1412V17.3923H92.3568V18.7065C93.5493 17.6811 95.3453 17.0745 97.7878 17.3201V21.7825Z" fill="#606060"/>
</svg>
