<svg width="160" height="32" viewBox="0 0 160 32" fill="none" xmlns="http://www.w3.org/2000/svg">
<path d="M61.6111 23.9026C61.7222 24.9563 62.5 26.2319 63.9444 26.2319H64.7778C65.1111 26.2319 65.3889 25.9546 65.3889 25.6218V7.26482C65.3889 6.93207 65.1111 6.71023 64.7778 6.71023H62.1667C61.8333 6.71023 61.6111 6.93207 61.5556 7.26482V8.76222C59.9444 6.82115 57.4444 5.98926 54.9444 5.98926C49.2222 5.98926 44.6111 10.5924 44.6111 16.3047C44.6667 22.017 49.2778 26.6201 55 26.6201C57.5 26.6201 60.2222 25.6773 61.6111 23.9026ZM55 23.0153C51.3889 23.0153 48.4444 20.0205 48.4444 16.3047C48.4444 12.5889 51.3889 9.59411 55 9.59411C58.6111 9.59411 61.5556 12.5889 61.5556 16.3047C61.5556 20.0205 58.6111 23.0153 55 23.0153Z" fill="#606060"/>
<path d="M103.833 23.9026C103.944 24.9563 104.722 26.2319 106.167 26.2319H107C107.333 26.2319 107.611 25.9546 107.611 25.6218V7.26482C107.611 6.93207 107.333 6.71023 107 6.71023H104.444C104.111 6.71023 103.889 6.93207 103.833 7.26482V8.76222C102.222 6.82115 99.7223 5.98926 97.2223 5.98926C91.5 5.98926 86.8889 10.5924 86.8889 16.3047C86.8889 22.017 91.5 26.6201 97.2223 26.6201C99.7778 26.6201 102.5 25.6773 103.833 23.9026ZM97.2778 23.0153C93.6667 23.0153 90.7223 20.0205 90.7223 16.3047C90.7223 12.5889 93.6667 9.59411 97.2778 9.59411C100.889 9.59411 103.833 12.5889 103.833 16.3047C103.833 20.0205 100.889 23.0153 97.2778 23.0153Z" fill="#606060"/>
<path d="M151.111 23.9026C151.222 24.9563 152 26.2319 153.444 26.2319H154.278C154.611 26.2319 154.889 25.9546 154.889 25.6218V7.26482C154.889 6.93207 154.611 6.71023 154.278 6.71023H151.667C151.333 6.71023 151.111 6.93207 151.056 7.26482V8.76222C149.444 6.82115 146.944 5.98926 144.444 5.98926C138.722 5.98926 134.111 10.5924 134.111 16.3047C134.111 22.017 138.722 26.6201 144.444 26.6201C147 26.6201 149.722 25.6773 151.111 23.9026ZM144.5 23.0153C140.889 23.0153 137.944 20.0205 137.944 16.3047C137.944 12.5889 140.889 9.59411 144.5 9.59411C148.111 9.59411 151.056 12.5889 151.056 16.3047C151.056 20.0205 148.111 23.0153 144.5 23.0153Z" fill="#606060"/>
<path d="M130.889 24.5129V15.0293C130.889 9.64977 127.5 6.04492 122.111 6.04492C119.556 6.04492 117.167 7.54232 116.667 8.81789C116.5 7.81962 116 6.76589 114.333 6.76589H113.5C113.167 6.76589 112.889 7.04319 112.889 7.37594V23.9583V25.733V25.7884C112.889 26.1212 113.167 26.343 113.5 26.343H115.278H116.111C116.167 26.343 116.167 26.343 116.222 26.343H116.278H116.333C116.333 26.343 116.389 26.343 116.389 26.2876C116.389 26.2876 116.389 26.2876 116.444 26.2876L116.5 26.2321L116.556 26.1766C116.611 26.0657 116.667 25.9548 116.667 25.8439V25.7884V24.6238V24.291V14.8629C116.667 11.9791 119 9.64977 121.889 9.64977C124.778 9.64977 127.111 11.9791 127.111 14.8629V23.9583V25.6775V25.733C127.111 26.0657 127.389 26.2876 127.722 26.2876H129.5H130.333C130.389 26.2876 130.389 26.2876 130.444 26.2876H130.5H130.556C130.556 26.2876 130.611 26.2876 130.611 26.2321C130.611 26.2321 130.611 26.2321 130.667 26.2321L130.722 26.1766L130.778 26.1212C130.833 26.0103 130.889 25.8993 130.889 25.7884V25.733V24.5129Z" fill="#606060"/>
<path d="M71.5555 21.2408C73.2778 22.4609 75.1667 23.0155 77 23.0155C78.7222 23.0155 80.5 22.1281 80.5 20.5753C80.5 18.4678 76.6111 18.1905 74.1666 17.3586C71.7222 16.5267 69.6111 14.8075 69.6111 12.0345C69.6111 7.76416 73.3889 6.04492 76.9444 6.04492C79.1666 6.04492 81.5 6.76589 83 7.81962C83.5 8.20783 83.2222 8.65151 83.2222 8.65151L81.7778 10.7035C81.6111 10.9253 81.3333 11.1472 80.9444 10.8699C80.5555 10.648 79.1111 9.59432 76.9444 9.59432C74.7778 9.59432 73.5 10.5926 73.5 11.8127C73.5 13.3101 75.1666 13.7538 77.1666 14.2529C80.6111 15.1957 84.3889 16.3049 84.3889 20.5198C84.3889 24.291 80.8889 26.5649 77 26.5649C74.0555 26.5649 71.5555 25.733 69.4444 24.1801C69 23.7364 69.3333 23.3482 69.3333 23.3482L70.7778 21.2962C71.0555 21.0189 71.3889 21.1298 71.5555 21.2408Z" fill="#606060"/>
<path d="M28.3889 8.09704C28.3889 11.9792 25.2222 15.1404 21.3333 15.1404C17.4444 15.1404 14.2778 11.9792 14.2778 8.09704C14.2778 4.21489 17.4444 1.05371 21.3333 1.05371C25.2778 1.05371 28.3889 4.15943 28.3889 8.09704ZM12.1667 16.8596C8.27778 16.8596 5.11111 20.0208 5.11111 23.9029C5.11111 27.7851 8.27778 30.9463 12.1667 30.9463C16.0556 30.9463 19.2222 27.7851 19.2222 23.9029C19.2222 20.0208 16.1111 16.8596 12.1667 16.8596ZM30.5 16.8596C26.6111 16.8596 23.4444 20.0208 23.4444 23.9029C23.4444 27.7851 26.6111 30.9463 30.5 30.9463C34.3889 30.9463 37.5556 27.7851 37.5556 23.9029C37.5556 20.0208 34.4444 16.8596 30.5 16.8596Z" fill="#606060"/>
</svg>
