<svg width="160" height="48" viewBox="0 0 160 48" fill="none" xmlns="http://www.w3.org/2000/svg">
<g clip-path="url(#clip0_1027_17350)">
<path d="M48.9155 0.888672H41.6312V47.1109H48.9155V0.888672Z" fill="#606060"/>
<path d="M74.4102 32.3659C74.4102 39.4398 68.5519 40.0037 66.8091 40.0037C62.455 40.0037 61.6628 35.8659 61.6628 33.3699V15.6797H54.3786V33.3329C54.3786 37.7147 55.7335 41.3312 58.1081 43.7421C60.206 45.8739 63.3491 47.0387 66.7545 47.0387C69.1692 47.0387 72.5892 46.2751 74.4102 44.5871V47.1108H81.6945V15.6797H74.4102V32.3659Z" fill="#606060"/>
<path d="M96.263 4.58691H88.9788V15.6802H83.5156V23.0758H88.9788V47.1114H96.263V23.0758H101.726V15.6802H96.263V4.58691Z" fill="#606060"/>
<path d="M124.666 37.7129C123.08 39.1606 120.986 39.963 118.687 39.963C113.621 39.963 109.901 36.1857 109.901 30.9996C109.901 25.8134 113.503 22.1952 118.687 22.1952C120.946 22.1952 123.08 22.9587 124.706 24.4064L125.811 25.3715L130.723 20.3869L129.494 19.261C126.604 16.6115 122.767 15.125 118.686 15.125C109.58 15.125 102.968 21.7958 102.968 30.9607C102.968 40.0868 109.739 46.9961 118.686 46.9961C122.843 46.9961 126.72 45.5096 129.574 42.8177L130.761 41.6917L125.773 36.7108L124.666 37.7129Z" fill="#606060"/>
<path d="M156.722 18.4198C154.624 16.2899 152.166 15.1251 148.76 15.1251C146.346 15.1251 143.61 15.8887 141.789 17.5749V0.888672H134.505V47.1109H141.789V29.796C141.789 22.7222 146.739 22.1601 148.482 22.1601C152.836 22.1601 152.716 26.2998 152.716 28.7921V47.1109H160V28.8309C160 24.4491 159.099 20.8326 156.722 18.4198Z" fill="#606060"/>
<path d="M118.447 25.7344C121.357 25.7344 123.715 28.125 123.715 31.0814C123.715 34.034 121.357 36.4283 118.447 36.4283C115.539 36.4283 113.182 34.034 113.182 31.0814C113.184 28.1268 115.541 25.7344 118.447 25.7344Z" fill="#606060"/>
<path d="M31.4333 35.5014C28.6635 38.395 24.9011 39.9628 20.9422 39.9628C12.8275 39.9628 6.92731 33.4917 6.92731 24.6096C6.92731 15.6869 12.8275 9.21579 20.9422 9.21579C24.8629 9.21579 28.5833 10.7818 31.395 13.6365L32.5022 14.7625L37.3718 9.81853L36.3028 8.69255C32.2655 4.47154 26.8023 2.18262 20.9422 2.18262C8.98692 2.18262 0 11.8283 0 24.6485C0 37.4298 9.02699 47.0367 20.9422 47.0367C26.8424 47.0367 32.3056 44.7071 36.3429 40.486L37.4118 39.3601L32.5824 34.3366L31.4333 35.5014Z" fill="#606060"/>
</g>
<defs>
<clipPath id="clip0_1027_17350">
<rect width="160" height="46.2222" fill="white" transform="translate(0 0.888672)"/>
</clipPath>
</defs>
</svg>
