<svg width="160" height="52" viewBox="0 0 160 52" fill="none" xmlns="http://www.w3.org/2000/svg">
<g clip-path="url(#clip0_1027_17358)">
<path d="M131.47 8.78889C121.929 8.78889 114.195 16.5097 114.195 26.0335C114.195 35.5574 121.929 43.2781 131.47 43.2781C141.011 43.2781 148.745 35.5574 148.745 26.0335C148.745 16.5097 141.011 8.78889 131.47 8.78889ZM131.47 33.9537C127.088 33.9537 123.536 30.4076 123.536 26.0335C123.536 21.6592 127.088 18.1135 131.47 18.1135C135.852 18.1135 139.404 21.6592 139.404 26.0335C139.404 28.134 138.569 30.1487 137.081 31.6339C135.593 33.119 133.575 33.9537 131.47 33.9537ZM103.779 18.3269V29.0057C103.779 32.2806 105.242 33.7399 108.522 33.7399H111.827V42.625H107.017C103.016 42.625 99.7241 41.4536 97.4956 39.2376C95.2674 37.0218 94.093 33.7567 94.093 29.7892V18.3269H88.1323V9.44182H94.093V4.64082L103.779 0.734375V9.44203H111.827V18.3271H103.779V18.3269ZM84.3391 9.44717V27.6013C84.3578 33.2149 81.3688 38.4099 76.5018 41.2217C71.6351 44.0341 65.6336 44.0341 60.7666 41.2217C55.8997 38.4097 52.9107 33.2146 52.9294 27.6013V13.6878L62.5501 9.80766V27.8802C62.5501 31.2347 65.2741 33.9537 68.6341 33.9537C71.9946 33.9537 74.7184 31.2345 74.7184 27.8802V13.3273L84.3391 9.44717ZM48.7643 0.734786V42.625H39.0779V4.64144L48.7643 0.734786ZM19.2024 8.79218C15.1553 8.79218 11.723 10.1577 9.1699 12.7618L7.83186 9.53127L0 12.6898V51.3326H9.68451V39.921C12.2038 42.19 15.4658 43.2761 19.2024 43.2761C23.5805 43.297 27.7612 41.4596 30.7026 38.2223C33.6446 35.0157 35.2649 30.6986 35.2649 26.0668C35.2649 16.3801 28.2095 8.79218 19.2024 8.79218ZM17.7211 33.9537C13.2699 33.9537 9.66082 30.4078 9.66082 26.0335C9.66082 21.6592 13.2701 18.1135 17.7211 18.1135C22.1724 18.1135 25.7819 21.6594 25.7819 26.0335C25.7819 30.4076 22.1734 33.9537 17.7211 33.9537Z" fill="#606060"/>
<path d="M154.506 0.666016C151.472 0.666016 149.013 3.12173 149.013 6.15094C149.013 9.18016 151.472 11.6359 154.506 11.6359C157.54 11.6359 160 9.18023 160 6.15094C160 3.12166 157.54 0.666016 154.506 0.666016ZM156.676 8.82996H155.652L154.186 5.28931H152.715V7.11612C152.715 7.50962 152.905 7.75379 153.353 7.75379H154.004V8.82996H153.204C152.12 8.82996 151.54 8.21754 151.54 7.19408V5.28944H150.729V4.26004H151.54V3.52837L152.715 3.05409V4.26004H155.03L156.164 7.21744L157.309 4.23185H158.58L156.676 8.82996Z" fill="#606060"/>
</g>
<defs>
<clipPath id="clip0_1027_17358">
<rect width="160" height="50.667" fill="white" transform="translate(0 0.666016)"/>
</clipPath>
</defs>
</svg>
