<svg width="138" height="40" viewBox="0 0 138 40" fill="none" xmlns="http://www.w3.org/2000/svg">
<path d="M0 21.0308H5.87958V7.71422H6.17356L9.52492 18.4496H13.6994L17.0214 7.71422H17.3448V21.0308H23.2243V0.498637H14.8165L11.7886 10.7061H11.4358L8.4078 0.498637H0V21.0308Z" fill="#101010"/>
<path d="M26.8428 21.0308H40.8362V15.8684H32.9282V13.2579H39.9543V8.47685H32.9282V5.66101H40.5422V0.498637H26.8428V21.0308Z" fill="#101010"/>
<path d="M48.1825 21.0308H54.2972V5.66101H59.4125V0.498637H43.0378V5.66101H48.1825V21.0308Z" fill="#101010"/>
<path d="M66.5562 21.0308H72.6709V5.66101H77.7862V0.498637H61.4115V5.66101H66.5562V21.0308Z" fill="#101010"/>
<path d="M80.2988 21.0308H94.2922V15.8684H86.3841V13.2579H93.4102V8.47685H86.3841V5.66101H93.9982V0.498637H80.2988V21.0308Z" fill="#101010"/>
<path d="M102.138 21.0308H110.193L116.426 0.498637H110.017L106.313 15.1351H106.019L102.344 0.498637H95.9059L102.138 21.0308Z" fill="#101010"/>
<path d="M116.569 10.9114C116.569 16.807 121.008 21.5294 127.064 21.5294H127.505C133.62 21.5294 138 16.9537 138 10.97V10.5594C138 4.57574 133.62 0 127.505 0H127.064C120.92 0 116.569 4.57574 116.569 10.6181V10.9114ZM122.86 10.9114V10.6181C122.86 7.30358 124.83 5.16237 127.093 5.16237H127.476C129.769 5.16237 131.709 7.30358 131.709 10.6181V10.9114C131.709 14.2552 129.769 16.3671 127.476 16.3671H127.093C124.83 16.3671 122.86 14.2552 122.86 10.9114Z" fill="#101010"/>
<path d="M25.6014 39.8869H28.222C30.9056 39.8869 32.6947 38.1395 32.6947 35.5248V35.2734C32.6947 32.7593 30.9056 31.0874 28.222 31.0874H25.6014V39.8869ZM26.9243 38.6801V32.2942H28.2346C30.1497 32.2942 31.2962 33.4255 31.2962 35.2608V35.4997C31.2962 37.4733 30.1497 38.6801 28.2346 38.6801H26.9243Z" fill="#101010"/>
<path d="M35.6462 39.8869H36.9817V31.0874H35.6462V39.8869Z" fill="#101010"/>
<path d="M43.8871 40H43.9879C45.0084 40 46.0038 39.5475 46.5077 38.8938C46.5329 39.2458 46.6211 39.6732 46.7219 39.8869H47.7046V35.2986H44.3029V36.4676H46.4447V36.6813C46.4447 37.8881 45.4872 38.7806 44.1643 38.7806H44.0509C42.3878 38.7806 41.3169 37.5361 41.3169 35.6128V35.3614C41.3169 33.4507 42.3752 32.181 44.0005 32.181H44.1139C45.1218 32.181 45.8652 32.6964 46.3313 33.5638L47.4275 32.8724C46.7471 31.6908 45.4746 30.9617 44.1265 30.9617H43.9879C41.6067 30.9617 39.931 32.7467 39.931 35.374V35.6003C39.931 38.2527 41.4807 40 43.8871 40Z" fill="#101010"/>
<path d="M50.8636 39.8869H52.1991V31.0874H50.8636V39.8869Z" fill="#101010"/>
<path d="M57.202 39.8869H58.5249V32.2942H60.8683V31.0874H54.8586V32.2942H57.202V39.8869Z" fill="#101010"/>
<path d="M61.8095 39.8869H63.2458L64.0018 37.5864H67.5043L68.2603 39.8869H69.6966L66.6602 31.0874H64.8459L61.8095 39.8869ZM64.3671 36.4299L65.7152 32.357H65.7908L67.1516 36.4299H64.3671Z" fill="#101010"/>
<path d="M72.1024 39.8869H76.9153V38.6801H73.4379V31.0874H72.1024V39.8869Z" fill="#101010"/>
<path d="M83.3437 39.8869H84.78L85.5359 37.5864H89.0385L89.7944 39.8869H91.2307L88.1943 31.0874H86.38L83.3437 39.8869ZM85.9013 36.4299L87.2494 32.357H87.325L88.6857 36.4299H85.9013Z" fill="#101010"/>
<path d="M96.7049 40H96.8057C97.8262 40 98.8216 39.5475 99.3255 38.8938C99.3507 39.2458 99.4389 39.6732 99.5397 39.8869H100.522V35.2986H97.1207V36.4676H99.2625V36.6813C99.2625 37.8881 98.305 38.7806 96.9821 38.7806H96.8687C95.2056 38.7806 94.1347 37.5361 94.1347 35.6128V35.3614C94.1347 33.4507 95.193 32.181 96.8183 32.181H96.9317C97.9396 32.181 98.683 32.6964 99.1491 33.5638L100.245 32.8724C99.5649 31.6908 98.2924 30.9617 96.9443 30.9617H96.8057C94.4245 30.9617 92.7488 32.7467 92.7488 35.374V35.6003C92.7488 38.2527 94.2985 40 96.7049 40Z" fill="#101010"/>
<path d="M103.681 39.8869H108.86V38.6801H105.017V35.9899H108.482V34.8209H105.017V32.2942H108.734V31.0874H103.681V39.8869Z" fill="#101010"/>
<path d="M111.979 39.8869H113.289V33.0484H113.378L117.233 39.8869H118.606V31.0874H117.308V37.7624H117.245L113.491 31.0874H111.979V39.8869Z" fill="#101010"/>
<path d="M125.637 40H125.737C127.136 40 128.345 39.3086 129.013 38.127L127.993 37.3979C127.526 38.2275 126.758 38.7681 125.763 38.7681H125.637C124.011 38.7681 122.94 37.5236 122.94 35.6128V35.3614C122.94 33.4381 124.011 32.1936 125.611 32.1936H125.712C126.733 32.1936 127.476 32.7216 127.93 33.5638L129.001 32.8473C128.333 31.6782 127.073 30.9617 125.712 30.9617H125.599C123.243 30.9617 121.554 32.7593 121.554 35.3614V35.6003C121.554 38.2401 123.18 40 125.637 40Z" fill="#101010"/>
<path d="M133.355 39.8869H134.69V36.4173L137.651 31.0874H136.126L134.06 35.0723H133.984L131.918 31.0874H130.381L133.355 36.4173V39.8869Z" fill="#101010"/>
</svg>
