<svg width="180" height="74" viewBox="0 0 180 74" fill="none" xmlns="http://www.w3.org/2000/svg">
<path d="M155.563 33.2723C152.52 33.9888 144.485 34.3869 144.485 34.3869L143.496 37.6245C143.496 37.6245 147.475 37.2795 150.388 37.5715C150.388 37.5715 151.324 37.4918 151.428 38.633C151.48 39.8006 151.35 41.0214 151.35 41.0214C151.35 41.0214 151.272 41.7379 150.31 41.9237C149.192 42.1094 141.65 42.4544 141.65 42.4544L140.428 46.6474C140.428 46.6474 139.986 47.6028 141 47.3374C141.936 47.072 149.842 45.5328 150.882 45.7451C151.974 46.0105 153.223 47.5497 152.858 48.9297C152.442 50.6016 144.537 55.7499 139.752 55.4049C139.752 55.4049 137.229 55.5641 135.123 52.0877C133.094 48.7704 135.825 42.534 135.825 42.534C135.825 42.534 134.603 39.6149 135.513 38.5534C135.513 38.5534 136.033 38.1022 137.593 37.9695L139.544 33.8827C139.544 33.8827 137.333 34.0154 136.033 32.37C134.837 30.7778 134.733 30.0878 135.669 29.6632C136.657 29.1324 145.811 27.4605 152.104 27.6728C152.104 27.6728 154.315 27.4074 156.265 31.3085C156.265 31.3085 157.149 32.9008 155.589 33.2723M131.846 48.9827C131.066 50.92 128.907 52.9634 126.307 51.7162C123.654 50.4423 119.467 41.7379 119.467 41.7379C119.467 41.7379 117.907 38.5003 117.595 38.6064C117.595 38.6064 117.257 37.9695 117.075 41.5256C116.815 45.0551 117.127 51.9285 115.697 53.0165C114.396 54.078 112.836 53.6269 111.952 52.3796C111.224 51.1323 110.912 48.1335 111.328 42.9056C111.796 37.6776 112.966 32.1046 114.448 30.3797C116.009 28.6282 117.257 29.902 117.725 30.3797C117.725 30.3797 119.727 32.2373 123.108 37.7307L123.68 38.7391C123.68 38.7391 126.749 43.9671 127.061 43.9405C127.061 43.9405 127.321 44.2059 127.529 43.9936C127.841 43.914 127.737 42.2156 127.737 42.2156C127.737 42.2156 127.165 36.563 124.304 27.0094C124.304 27.0094 123.888 25.7886 124.174 24.621C124.434 23.5594 125.553 24.0902 125.553 24.0902C125.553 24.0902 129.87 26.2132 131.976 33.3785C134.056 40.5437 132.652 47.0455 131.872 48.9827M110.677 30.592C110.261 31.335 110.079 32.37 108.285 32.6619C108.285 32.6619 90.8613 33.9092 90.0031 35.1565C90.0031 35.1565 89.431 35.8996 90.3672 36.0853C91.3554 36.2976 95.3082 36.8284 97.1806 36.9345C99.209 36.9345 106.022 36.9876 108.519 40.1191C108.519 40.1191 109.949 41.6052 109.897 44.9755C109.845 48.4254 109.247 49.6462 107.921 50.8935C106.543 52.0611 94.7361 57.4749 87.1165 49.1951C87.1165 49.1951 83.6317 45.2144 88.3387 42.189C88.3387 42.189 91.7194 40.066 100.379 42.534C100.379 42.534 102.98 43.4894 102.876 44.4713C102.72 45.5328 100.717 46.5943 97.8047 46.5413C94.9961 46.4617 92.9157 45.0817 93.3318 45.3205C93.7219 45.4532 90.2891 43.6221 89.2229 44.8694C88.1827 46.037 88.4427 46.727 89.483 47.4436C92.0835 48.9827 102.304 48.4255 105.346 44.949C105.346 44.949 106.569 43.5425 104.722 42.4013C102.902 41.3398 97.5967 40.6764 95.5423 40.5968C93.5918 40.4906 86.2843 40.5968 85.1921 38.6595C85.1921 38.6595 84.1518 37.2795 85.2961 33.5112C86.4923 29.5305 94.9961 27.9913 98.6889 27.6728C98.6889 27.6728 108.831 27.2482 110.729 29.3712C110.729 29.3712 110.99 29.8489 110.677 30.5654M81.9154 53.9188C80.6931 54.8476 78.0925 54.4496 77.3384 53.388C76.6102 52.4592 76.3502 48.797 76.4802 43.0383C76.6622 37.1468 76.7403 29.9285 78.0405 28.7609C79.3408 27.6197 80.121 28.6282 80.6411 29.3978C81.1612 30.1939 81.8373 31.0697 81.9414 32.9008C82.0974 34.7584 82.5395 44.3121 82.5395 44.3121C82.5395 44.3121 83.1116 53.0165 81.9414 53.9188M84.5159 22.8695C80.9271 24.1167 78.4826 23.7187 76.4022 22.7898C75.492 24.4617 74.9459 24.966 74.2697 25.0721C73.2295 25.1783 72.3193 23.4798 72.1893 22.9491C71.9812 22.551 71.4871 21.8345 72.0853 20.2157C70.0568 18.358 69.9008 15.8635 70.2649 14.1916C70.733 12.2278 74.1657 4.85023 84.5679 3.97448C84.5679 3.97448 89.665 3.60295 90.5492 6.36289H90.7052C90.7052 6.36289 95.6463 6.36289 95.5423 10.8743C95.5423 15.3858 90.0811 21.0118 84.5159 22.9491M89.1449 10.0251C85.8682 10.5559 80.8231 15.0142 78.4046 18.703C82.1234 19.393 88.6248 19.1276 91.5374 13.1301C91.5374 13.1301 92.9157 9.36167 89.1449 10.0251ZM74.7638 12.9443C73.7236 14.6692 73.6716 15.7042 74.1657 16.3942C75.388 14.5366 77.5464 11.6174 80.7971 9.33513C78.3006 9.60051 76.1941 10.662 74.7638 12.9443ZM163.365 53.733C160.972 59.7306 158.944 65.8078 157.773 74.9103C157.773 74.9103 157.513 76.6883 156.083 76.1045C154.653 75.5737 152.312 73.1853 151.792 69.815C151.272 65.4097 153.197 57.9791 157.123 49.4339C155.979 47.5762 155.173 44.8163 155.823 40.9418C155.823 40.9418 156.863 33.7765 163.885 27.3013C163.885 27.3013 164.717 26.5848 165.185 26.8236C165.757 27.089 165.523 29.3712 165.055 30.5389C164.639 31.6535 161.518 37.1734 161.518 37.1734C161.518 37.1734 159.568 40.9418 160.114 43.8875C163.807 38.1022 172.207 26.3725 177.408 30.0878C180.71 32.4762 180.71 40.1722 178.24 44.6305C176.289 48.1601 170.776 55.458 163.417 53.7596M174.235 35.7138C172.311 37.8368 168.878 41.8706 166.173 47.3374C169.034 47.0189 171.816 45.4001 172.675 44.5775C174.053 43.3302 177.226 39.9599 176.732 35.5015C176.732 35.5015 176.419 33.1662 174.235 35.7138ZM57.7302 56.8645C48.5243 59.7306 39.8384 58.4037 35.1054 57.1299C34.9754 59.0937 34.7673 59.9164 34.4553 60.2348C34.0912 60.6594 31.0745 62.4109 29.4102 59.9164C28.682 58.7222 28.318 56.5726 28.1099 54.6088C17.4476 49.6727 12.5066 42.4013 12.3506 42.136C12.0905 41.8706 9.67199 39.2964 12.0905 36.1119C14.353 33.2458 21.8426 30.3531 28.552 29.212C28.8121 23.3737 29.4362 18.8622 30.2424 16.8719C31.2046 14.4835 32.4268 16.6065 33.5191 18.1988C34.4033 19.393 34.9494 24.5148 35.0014 28.6016C39.3703 28.3893 42.0229 28.7078 46.8859 29.6632C53.2833 30.7778 57.5482 34.1215 57.2101 37.8899C56.898 41.6052 53.5693 43.1444 52.2691 43.2506C50.9688 43.3567 48.8883 42.3748 48.8883 42.3748C47.432 41.6848 48.7583 41.0479 50.4487 40.3049C52.3211 39.376 51.905 38.4472 51.905 38.4472C51.2288 36.3242 42.9331 34.9177 34.6893 34.9177C34.6893 39.5618 34.8714 47.2578 35.0014 51.7427C40.7746 52.8573 45.0915 52.6184 45.0915 52.6184C45.0915 52.6184 66.156 52.0081 66.7541 38.288C67.4043 24.5413 45.6897 11.3786 29.6963 7.23864C13.7289 2.96604 4.67893 5.99136 3.89877 6.38943C3.04058 6.81403 3.82075 6.97326 3.82075 6.97326C3.82075 6.97326 4.67893 7.10595 6.23926 7.63671C7.7996 8.16747 6.55133 8.9636 6.55133 8.9636C3.82075 9.91897 0.778102 9.36167 0.179975 8.08785C-0.418152 6.84057 0.570058 5.69944 1.74031 4.02755C2.83254 2.30259 4.0808 2.35567 4.0808 2.35567C23.845 -4.67688 47.9781 7.92862 47.9781 7.92862C70.5509 19.5522 74.3998 33.2192 73.9837 38.5268C73.6196 43.7548 71.6432 52.5919 57.7302 56.891M14.301 37.8899C12.0645 38.9514 13.6248 40.6498 13.6248 40.6498C17.8377 45.2409 22.9868 48.1335 27.9279 49.9381C28.5 41.9767 28.448 39.1372 28.448 35.13C20.8024 35.6607 16.3814 36.9345 14.301 37.8899Z" fill="#606060"/>
</svg>
