<svg width="160" height="60" viewBox="0 0 160 60" fill="none" xmlns="http://www.w3.org/2000/svg">
<path d="M82.4159 25.4514V22.7553H77.3334V39.3342H82.5364V30.1481C83.4302 28.2293 84.9367 27.2691 87.056 27.2674C87.6717 27.2643 88.286 27.3236 88.8889 27.4444V22.682C88.3642 22.5131 87.8131 22.4335 87.2602 22.4467C85.4953 22.4467 83.8779 23.4508 82.4081 25.459" fill="#606060"/>
<path d="M95.8685 33.7127C95.1649 32.9274 94.7792 31.935 94.7792 30.9098C94.7792 29.8845 95.1649 28.8921 95.8685 28.1068C96.2041 27.7627 96.6088 27.4838 97.0595 27.2863C97.5102 27.0887 97.9981 26.9763 98.4952 26.9555C98.9923 26.9348 99.4889 27.006 99.9567 27.1651C100.424 27.3243 100.854 27.5682 101.221 27.883C101.302 27.956 101.382 28.0306 101.46 28.1068C102.166 28.8896 102.553 29.8813 102.553 30.906C102.553 31.9308 102.166 32.9224 101.46 33.7052C101.123 34.0492 100.716 34.3276 100.264 34.5244C99.8114 34.7212 99.3221 34.8326 98.8238 34.8522C98.3255 34.8718 97.828 34.7993 97.3596 34.6388C96.8913 34.4782 96.4612 34.2328 96.0942 33.9166C96.0172 33.8494 95.9402 33.7798 95.8685 33.7052M104.999 36.911C106.704 35.2861 107.555 33.2799 107.553 30.8923C107.581 29.7828 107.369 28.6795 106.93 27.6487C106.491 26.6179 105.834 25.6807 104.999 24.8936C103.315 23.3255 101.037 22.4453 98.6629 22.4453C96.2885 22.4453 94.0106 23.3255 92.3267 24.8936C90.6901 26.5107 89.7778 28.6541 89.7778 30.8824C89.7778 33.1107 90.6901 35.2541 92.3267 36.8712C94.0064 38.4435 96.2822 39.3291 98.6569 39.3342C101.031 39.3393 103.312 38.4636 104.999 36.8986" fill="#606060"/>
<path d="M134.265 29.3401C134.466 28.532 134.94 27.8006 135.621 27.2473C136.239 26.7586 137.033 26.4931 137.853 26.5016C138.264 26.5054 138.669 26.5829 139.046 26.7297C139.423 26.8765 139.764 27.0896 140.05 27.3566C140.676 27.8767 141.089 28.5731 141.222 29.3326L134.265 29.3401ZM137.966 22.4503C136.767 22.4273 135.576 22.6284 134.466 23.0411C133.357 23.4538 132.354 24.0692 131.519 24.8488C129.764 26.4461 128.887 28.4585 128.889 30.886C128.889 33.3715 129.729 35.4005 131.409 36.973C133.09 38.5455 135.286 39.3325 137.999 39.3342C139.829 39.3342 141.393 39.0252 142.691 38.4071C144.039 37.7501 145.248 36.8816 146.26 35.8421L142.304 33.8388C141.297 34.6772 139.976 35.0964 138.339 35.0964C135.985 35.0964 134.603 34.1528 134.191 32.2655H146.571C146.573 32.1333 146.584 32.0013 146.604 31.8703C146.623 31.7013 146.639 31.5472 146.65 31.408C146.661 31.2688 146.667 31.1594 146.667 31.0526C146.667 28.6665 145.853 26.635 144.226 24.9581C142.599 23.2813 140.508 22.4437 137.955 22.4453" fill="#606060"/>
<path d="M158.382 22.4467C156.617 22.4467 154.999 23.4508 153.527 25.459V22.7553H148.444V39.3342H153.65V30.1482C154.54 28.2293 156.046 27.2691 158.167 27.2674C158.783 27.2643 159.397 27.3236 160 27.4444V22.682C159.476 22.513 158.926 22.4335 158.374 22.4467" fill="#606060"/>
<path d="M72.1018 19.0122C72.1803 18.4238 72.2264 17.8315 72.2398 17.2381C72.1732 14.0205 73.3844 10.9082 75.607 8.5858C77.8296 6.26341 80.8816 4.9212 84.0914 4.85442C87.3013 4.78765 90.4061 6.00179 92.723 8.22974C95.0398 10.4577 96.3788 13.517 96.4454 16.7345C96.4454 16.9041 96.4454 17.0711 96.4454 17.2381H101.333C101.332 12.7501 99.5622 8.44431 96.4094 5.25777C93.2565 2.07122 88.9758 0.261809 84.4988 0.223284C80.0217 0.184759 75.7106 1.92025 72.5037 5.05207C69.2968 8.18389 67.4536 12.4586 67.3752 16.9459C67.3727 17.4276 67.3388 17.9087 67.2737 18.386C67.0499 20.1236 66.4018 22.6283 64.5903 24.6946C63.1718 26.3122 61.2301 27.4054 58.7992 27.9741V16.6067H53.3334V39.3338H58.7992V32.9652C60.4071 32.6944 61.9715 32.2083 63.4503 31.5198L68.3955 39.3338H74.944L67.7058 28.4959C67.888 28.3081 68.0702 28.1176 68.2446 27.9194C70.8707 24.9242 71.7921 21.4203 72.1018 19.007" fill="#606060"/>
<path d="M121.062 33.883C120.337 34.6102 119.345 35.0259 118.307 35.0385C117.268 35.0511 116.266 34.6597 115.522 33.9504L115.453 33.883C114.754 33.082 114.37 32.0633 114.37 31.01C114.37 29.9567 114.754 28.938 115.453 28.137C116.176 27.4116 117.164 26.9962 118.2 26.9821C119.235 26.968 120.234 27.3563 120.977 28.0618L121.054 28.137C121.746 28.9414 122.126 29.9588 122.126 31.01C122.126 32.0612 121.746 33.0786 121.054 33.883M127.111 44.7192V22.7642H122.101V24.2104C121.519 23.6301 120.82 23.1738 120.049 22.8705C119.277 22.5672 118.45 22.4233 117.619 22.448C115.389 22.448 113.458 23.2679 111.827 24.9076C110.196 26.5474 109.38 28.5793 109.378 31.0035C109.378 33.4225 110.215 35.4337 111.888 37.0372C113.562 38.6406 115.472 39.445 117.619 39.4501C119.25 39.4758 120.845 38.9808 122.162 38.0402V44.7192C122.162 47.4688 121.045 50.1057 119.057 52.0499C117.068 53.9941 114.372 55.0864 111.56 55.0864C108.748 55.0864 106.051 53.9941 104.062 52.0499C102.074 50.1057 100.957 47.4688 100.957 44.7192H96C96.0419 48.6884 97.6684 52.4845 100.532 55.2976C103.397 58.1107 107.272 59.7181 111.331 59.777C115.39 59.8358 119.312 58.3414 122.26 55.6125C125.208 52.8837 126.949 49.1364 127.111 45.1702V44.7192Z" fill="#606060"/>
<path d="M128.629 52.5334H128.832C129.053 52.5334 129.231 52.4598 129.231 52.2794C129.231 52.0991 129.117 52.0255 128.863 52.0255C128.789 52.0234 128.714 52.0302 128.642 52.0458L128.629 52.5334ZM128.629 53.5113H128.23V51.7867C128.449 51.7462 128.671 51.7283 128.893 51.7334C129.101 51.7163 129.309 51.7605 129.493 51.8604C129.547 51.9069 129.59 51.9651 129.619 52.0306C129.648 52.0961 129.662 52.1672 129.66 52.2388C129.652 52.3353 129.613 52.4266 129.549 52.4987C129.484 52.5707 129.397 52.6195 129.302 52.6376V52.6604C129.388 52.695 129.462 52.7524 129.518 52.8262C129.573 52.9 129.608 52.9876 129.617 53.0795C129.635 53.2295 129.678 53.3754 129.744 53.5113H129.312C129.246 53.3782 129.2 53.2361 129.175 53.0897C129.145 52.9017 129.038 52.8179 128.817 52.8179H128.629V53.5113ZM127.562 52.6071C127.557 52.7826 127.586 52.9574 127.648 53.1215C127.711 53.2857 127.805 53.436 127.925 53.5638C128.045 53.6917 128.189 53.7946 128.349 53.8666C128.51 53.9387 128.682 53.9784 128.858 53.9837H128.908C129.082 53.983 129.254 53.9482 129.413 53.8812C129.573 53.8142 129.719 53.7164 129.841 53.5933C129.963 53.4702 130.06 53.3242 130.125 53.1637C130.191 53.0032 130.225 52.8313 130.224 52.6579V52.6172C130.224 52.2643 130.084 51.9258 129.834 51.6762C129.585 51.4266 129.246 51.2864 128.893 51.2864C128.54 51.2864 128.202 51.4266 127.952 51.6762C127.703 51.9258 127.562 52.2643 127.562 52.6172M130.666 52.6172C130.676 52.9687 130.581 53.3152 130.394 53.6129C130.207 53.9106 129.936 54.1462 129.615 54.2899C129.295 54.4336 128.938 54.479 128.592 54.4202C128.245 54.3615 127.924 54.2013 127.668 53.9599C127.413 53.7185 127.234 53.4067 127.156 53.064C127.077 52.7213 127.102 52.363 127.228 52.0344C127.353 51.7059 127.572 51.4218 127.859 51.2182C128.145 51.0145 128.486 50.9003 128.837 50.8901H128.888C129.348 50.8792 129.794 51.0512 130.127 51.3683C130.46 51.6854 130.654 52.1218 130.666 52.5817V52.6172Z" fill="#606060"/>
<path d="M16.8886 36.7026C16.8815 37.2286 16.7191 37.7407 16.4217 38.1745C16.1243 38.6083 15.7052 38.9445 15.2172 39.1407C14.7292 39.337 14.1941 39.3846 13.6791 39.2775C13.1642 39.1703 12.6924 38.9133 12.3232 38.5388C11.9539 38.1642 11.7037 37.6888 11.6039 37.1724C11.5042 36.6559 11.5594 36.1215 11.7626 35.6364C11.9658 35.1513 12.308 34.737 12.746 34.4459C13.184 34.1547 13.6984 33.9996 14.2244 34C14.5774 34.0003 14.9269 34.0707 15.2525 34.2071C15.5781 34.3435 15.8734 34.5432 16.1213 34.7946C16.3691 35.046 16.5646 35.3441 16.6963 35.6717C16.828 35.9992 16.8934 36.3496 16.8886 36.7026Z" fill="#606060"/>
<path d="M38.2222 40.2222C39.695 40.2222 40.8889 38.8293 40.8889 37.1111C40.8889 35.3929 39.695 34 38.2222 34C36.7494 34 35.5555 35.3929 35.5555 37.1111C35.5555 38.8293 36.7494 40.2222 38.2222 40.2222Z" fill="#606060"/>
<path d="M14.2269 17.831C14.2158 17.7415 14.2244 17.6507 14.252 17.5646C14.2796 17.4785 14.3257 17.399 14.3872 17.3312C14.4482 17.2631 14.5237 17.2085 14.6084 17.171C14.6932 17.1335 14.7853 17.114 14.8785 17.1138H22.6751C22.791 17.1138 22.9048 17.1437 23.0048 17.2003C23.1048 17.257 23.1874 17.3384 23.244 17.4362C23.3011 17.5342 23.3311 17.6448 23.3311 17.7573C23.3311 17.8698 23.3011 17.9803 23.244 18.0784L19.228 24.8902C19.1867 24.9635 19.1307 25.0281 19.0634 25.0803C18.9961 25.1326 18.9188 25.1715 18.8358 25.1947C18.7529 25.2179 18.666 25.225 18.5802 25.2157C18.4944 25.2063 18.4114 25.1806 18.3359 25.1401C18.2992 25.1199 18.2646 25.0965 18.2325 25.0701C16.099 23.2953 14.6922 20.8422 14.2657 18.1533C14.2553 18.0684 14.2424 17.9559 14.2269 17.831ZM26.841 27.7289C24.9262 27.9042 22.9968 27.6085 21.2321 26.8693C21.146 26.8335 21.0688 26.7805 21.0055 26.7137C20.9422 26.647 20.8943 26.568 20.8649 26.482C20.8357 26.3957 20.8254 26.3044 20.8347 26.214C20.8441 26.1237 20.8729 26.0362 20.9192 25.9572L25.5739 18.0784C25.6304 17.9806 25.713 17.8991 25.813 17.8424C25.913 17.7857 26.0268 17.7558 26.1428 17.7558C26.2587 17.7558 26.3726 17.7857 26.4726 17.8424C26.5726 17.8991 26.6551 17.9806 26.7117 18.0784L31.2086 25.7048C31.2537 25.7801 31.2824 25.8636 31.2929 25.9501C31.3033 26.0365 31.2953 26.1241 31.2694 26.2075C31.2435 26.2908 31.2002 26.3681 31.1421 26.4347C31.0841 26.5012 31.0125 26.5556 30.9319 26.5944C29.6529 27.2144 28.2656 27.5991 26.841 27.7289ZM34.7306 23.6608C34.4454 23.9963 34.1407 24.3159 33.8178 24.6178C33.748 24.6858 33.663 24.7374 33.5693 24.7686C33.4755 24.7998 33.3757 24.8098 33.2773 24.7977C33.1784 24.7839 33.0841 24.7483 33.0016 24.6937C32.9191 24.6391 32.8507 24.567 32.8015 24.4829L29.0235 18.0759C28.9652 17.9783 28.9345 17.8675 28.9345 17.7548C28.9345 17.642 28.9652 17.5313 29.0235 17.4337C29.0801 17.3359 29.1626 17.2545 29.2626 17.1978C29.3626 17.1412 29.4765 17.1113 29.5924 17.1113H36.6752C36.7688 17.1115 36.8613 17.1309 36.9465 17.1684C37.0317 17.2059 37.1076 17.2606 37.1691 17.3287C37.2296 17.3971 37.275 17.4767 37.3025 17.5627C37.3301 17.6486 37.3393 17.739 37.3295 17.8285C37.0508 19.9708 36.1497 21.993 34.7306 23.6608Z" fill="#606060"/>
<path d="M39.6118 17.0471C39.1468 23.7672 33.8649 29.3708 26.966 30.0092C19.3044 30.7174 12.4864 25.0389 11.7811 17.3443C11.1412 10.3967 6.62461 5.87099 0 5.55566V10.3967C4.09858 10.694 6.5802 13.3045 6.99293 17.7889C7.88893 27.5408 16.0939 34.889 25.6808 34.889C26.2538 34.889 26.8328 34.8623 27.4179 34.8089C36.822 33.9404 43.9742 26.2278 44.4444 17.0393L39.6118 17.0471Z" fill="#606060"/>
</svg>
