<svg width="160" height="56" viewBox="0 0 160 56" fill="none" xmlns="http://www.w3.org/2000/svg">
<g clip-path="url(#clip0_1027_17361)">
<path d="M108.776 42.0536C107.498 43.8963 105.666 45.2797 103.549 46.0011C101.432 46.7226 99.1402 46.7443 97.0098 46.063C94.8794 45.3817 93.0221 44.0332 91.7101 42.215C90.398 40.3968 89.7 38.2044 89.7183 35.959C89.7366 33.7135 90.4703 31.5329 91.812 29.7366C93.1536 27.9403 95.0326 26.6225 97.1738 25.9764C99.3151 25.3303 101.606 25.3897 103.711 26.146C105.816 26.9023 107.625 28.3156 108.873 30.1791L116.609 25.592C114.356 22.023 111.011 19.2842 107.077 17.787C103.143 16.2898 98.8308 16.115 94.7891 17.2888C90.7473 18.4626 87.1938 20.9217 84.6622 24.2968C82.1306 27.6718 80.7575 31.7807 80.7492 36.0063C80.7409 40.232 82.0978 44.3463 84.6161 47.7313C87.1345 51.1164 90.6783 53.5896 94.7154 54.7794C98.7525 55.9693 103.065 55.8115 107.005 54.3299C110.946 52.8484 114.301 50.1229 116.567 46.5628L108.778 42.0536H108.776ZM130.09 0H121.115V54.0668H130.085V36.0445C130.085 33.2562 131.188 30.5821 133.151 28.6104C135.114 26.6388 137.777 25.5311 140.553 25.5311C143.329 25.5311 145.992 26.6388 147.955 28.6104C149.918 30.5821 151.021 33.2562 151.021 36.0445V54.0668H159.993V34.2915C159.991 30.8132 158.974 27.4117 157.067 24.5085C155.159 21.6054 152.445 19.3282 149.262 17.9591C146.078 16.59 142.564 16.1891 139.156 16.8063C135.748 17.4234 132.595 19.0314 130.087 21.431V0H130.09ZM67.2873 0H58.3152V42.0511C58.3149 44.6463 59.0585 47.1868 60.4572 49.3689C61.8559 51.5511 63.8505 53.2826 66.2028 54.3567C68.5551 55.4307 71.1656 55.8019 73.7223 55.4258C76.279 55.0497 78.6738 53.9423 80.6207 52.2358L76.2861 44.8487C75.8666 45.3813 75.3323 45.8116 74.7235 46.1072C74.1147 46.4028 73.4472 46.556 72.771 46.5555H71.7722C70.5829 46.5548 69.4426 46.0801 68.6016 45.2355C67.7607 44.3909 67.288 43.2456 67.2873 42.0511V27.0334H76.257V18.0223H67.2873V0ZM47.8546 0C46.5327 0 45.2649 0.527407 44.3302 1.4662C43.3955 2.40499 42.8704 3.67826 42.8704 5.00591C42.8704 6.33356 43.3955 7.60684 44.3302 8.54563C45.2649 9.48442 46.5327 10.0118 47.8546 10.0118C49.1765 10.0118 50.4443 9.48442 51.379 8.54563C52.3137 7.60684 52.8388 6.33356 52.8388 5.00591C52.8388 3.67826 52.3137 2.40499 51.379 1.4662C50.4443 0.527407 49.1765 0 47.8546 0V0ZM52.3395 54.0668V18.0223H43.3698V54.0668H52.3395Z" fill="#606060"/>
<path fill-rule="evenodd" clip-rule="evenodd" d="M0 54.0668H8.9697V43.5534H17.1952C20.0425 43.5534 22.862 42.9901 25.4927 41.8957C28.1233 40.8014 30.5135 39.1973 32.5269 37.1751C34.5403 35.153 36.1375 32.7523 37.2271 30.1103C38.3167 27.4682 38.8776 24.6365 38.8776 21.7767C38.8776 18.9169 38.3167 16.0852 37.2271 13.4431C36.1375 10.801 34.5403 8.4004 32.5269 6.37825C30.5135 4.35609 28.1233 2.75203 25.4927 1.65765C22.862 0.563271 20.0425 -6.02649e-08 17.1952 0L0 0V54.0668ZM8.9697 9.0087H17.1952C20.5661 9.0087 23.799 10.3536 26.1827 12.7476C28.5663 15.1417 29.9055 18.3886 29.9055 21.7743C29.9055 25.1599 28.5663 28.4069 26.1827 30.8009C23.799 33.1949 20.5661 34.5398 17.1952 34.5398H8.97212V9.0087H8.9697Z" fill="#606060"/>
</g>
<defs>
<clipPath id="clip0_1027_17361">
<rect width="160" height="56" fill="white"/>
</clipPath>
</defs>
</svg>
