<svg width="160" height="48" viewBox="0 0 160 48" fill="none" xmlns="http://www.w3.org/2000/svg">
<g clip-path="url(#clip0_1027_17427)">
<path d="M18.4801 31.9227C17.6801 31.1838 16.7201 30.6091 15.6001 30.0344C14.4801 29.4597 13.2001 28.9671 11.7601 28.3924C10.7201 27.9819 9.76008 27.6535 8.96008 27.243C8.16008 26.9146 7.52008 26.5041 7.04008 26.0936C6.48008 25.6831 6.16008 25.1905 5.92008 24.6979C5.68008 24.2053 5.52008 23.6306 5.52008 22.8917C5.52008 21.5781 6.08008 20.5929 7.20008 20.0182C8.32008 19.4435 9.60008 19.1151 11.1201 19.1151C12.8801 19.1151 14.3201 19.2793 15.6001 19.6077C16.8001 19.9361 17.7601 20.2645 18.3201 20.5929V15.4206C18.3201 15.4206 18.1601 15.3385 18.0001 15.3385C17.4401 15.1743 16.8001 15.0101 16.0801 14.928C15.3601 14.7638 14.5601 14.6817 13.6801 14.5996C12.8001 14.5175 12.0001 14.4354 11.1201 14.4354C7.76008 14.4354 4.96008 15.2564 3.04008 16.8163C1.04008 18.4583 0.0800781 20.5929 0.0800781 23.3843C0.0800781 24.78 0.320079 25.9294 0.800079 26.9146C1.28008 27.8998 1.84008 28.6387 2.64008 29.3776C3.44008 30.0344 4.32008 30.6091 5.36008 31.1017C6.40008 31.5943 7.52008 32.0869 8.72008 32.5795C11.1201 33.5647 12.8001 34.4678 13.9201 35.2888C15.0401 36.1098 15.5201 37.1771 15.5201 38.4907C15.5201 39.8043 14.9601 40.7074 13.9201 41.3642C12.8801 41.9389 11.2001 42.2673 8.96008 42.2673C6.72008 42.2673 5.20008 42.1031 3.52008 41.5284C2.16008 41.0358 1.20008 40.7074 0.560077 40.4611V45.6334C1.04008 45.7976 1.92008 46.0439 2.64008 46.2902C4.32008 46.7828 6.24008 46.947 8.96008 46.947C12.8001 46.947 15.7601 46.2081 17.8401 44.7303C19.9201 43.2525 20.9601 41.1179 20.9601 38.1623C20.9601 36.6845 20.7201 35.453 20.3201 34.4678C19.8401 33.4826 19.2801 32.6616 18.4801 31.9227ZM84.9601 41.6926C84.2401 41.4463 83.6801 40.8716 83.2001 40.2969C82.7201 39.7222 82.4001 38.9012 82.1601 37.916C81.9201 36.9308 81.8401 35.6172 81.8401 34.0573V19.6898H90.8801V15.0922H81.8401V5.24023L76.4001 6.55383V34.1394C76.4001 36.1919 76.5601 37.9981 76.8801 39.6401C77.2001 41.2 77.7601 42.5957 78.5601 43.663C79.3601 44.7303 80.4001 45.6334 81.6801 46.126C83.1201 46.7828 86.8801 47.5217 90.7201 46.6186V41.6926C87.6801 42.4315 85.6801 41.9389 84.9601 41.6926ZM68.9601 14.5996C68.4001 14.5175 67.8401 14.5175 67.3601 14.5175C65.0401 14.5175 62.8801 14.7638 60.9601 15.1743C59.0401 15.5848 57.5201 15.9953 56.1601 16.4879V46.2902H61.6001V20.1824C61.9201 20.1003 62.5601 19.9361 63.5201 19.7719C64.4801 19.5256 65.5201 19.4435 66.4801 19.4435C68.0001 19.4435 69.2801 19.5256 70.2401 19.7719C71.2001 20.0182 71.9201 20.1824 72.3201 20.3466V15.2564C71.8401 15.1743 71.2001 15.0101 70.5601 14.928C70.1601 14.6817 69.5201 14.5996 68.9601 14.5996ZM44.2401 39.0654C42.7201 41.1179 40.6401 42.1031 37.9201 42.1031C35.2001 42.1031 33.1201 41.1179 31.6001 39.0654C30.0801 37.0129 29.2801 34.2215 29.2801 30.6912C29.2801 27.243 30.0801 24.3695 31.6001 22.317C33.1201 20.2645 35.2001 19.2793 37.9201 19.2793C40.6401 19.2793 42.7201 20.2645 44.2401 22.317C45.7601 24.3695 46.5601 27.0788 46.5601 30.6912C46.5601 34.3036 45.7601 36.9308 44.2401 39.0654ZM48.1601 18.7867C46.8801 17.391 45.4401 16.2416 43.6801 15.5027C41.9201 14.7638 40.0801 14.3533 37.9201 14.3533C35.8401 14.3533 34.0001 14.7638 32.1601 15.5027C30.4001 16.2416 28.9601 17.391 27.6801 18.7867C26.4001 20.1824 25.4401 21.9065 24.8001 24.0411C24.0801 26.0115 23.7601 28.2282 23.7601 30.7733C23.7601 33.3184 24.0801 35.453 24.8001 37.5055C25.5201 39.3938 26.4801 41.1179 27.7601 42.6778C29.0401 44.0735 30.4801 45.2229 32.2401 45.9618C34.0001 46.7007 35.8401 47.1112 38.0001 47.1112C40.0801 47.1112 41.9201 46.7007 43.7601 45.9618C45.6001 45.2229 46.9601 44.0735 48.2401 42.6778C49.5201 41.2821 50.4801 39.558 51.1201 37.5055C51.8401 35.5351 52.1601 33.3184 52.1601 30.7733C52.1601 28.3924 51.8401 26.1757 51.1201 24.0411C50.4001 21.9886 49.4401 20.3466 48.1601 18.7867Z" fill="#606060"/>
<path d="M113.12 4.33687C112.24 4.33687 111.52 4.66527 110.88 5.23996C110.24 5.81466 110 6.63566 110 7.62086C110 8.60606 110.32 9.42706 110.88 10.0018C111.52 10.5765 112.24 10.9049 113.12 10.9049C114 10.9049 114.72 10.5765 115.36 10.0018C116 9.42706 116.24 8.60606 116.24 7.62086C116.24 6.63566 115.92 5.81466 115.36 5.23996C114.8 4.66527 114 4.33687 113.12 4.33687ZM154.08 41.6923C153.36 41.446 152.8 40.8713 152.32 40.2966C151.84 39.7219 151.52 38.9009 151.28 37.9157C151.04 36.9305 150.96 35.6169 150.96 34.057V19.6895H160V15.0919H150.96V5.40416L145.52 6.38936V34.1391C145.52 36.1916 145.68 37.9978 146 39.6398C146.32 41.1997 146.88 42.5954 147.68 43.6627C148.48 44.73 149.52 45.6331 150.8 46.1257C152.24 46.7825 156 47.5214 159.84 46.6183V41.6923C156.88 42.4312 154.8 41.9386 154.08 41.6923ZM139.52 31.9224C138.72 31.1835 137.76 30.6088 136.64 30.0341C135.52 29.4594 134.24 28.9668 132.8 28.3921C131.76 27.9816 130.8 27.6532 130 27.2427C129.2 26.9143 128.56 26.5038 128.08 26.0933C127.52 25.6828 127.2 25.1902 126.96 24.6976C126.72 24.205 126.56 23.6303 126.56 22.8914C126.56 21.5778 127.12 20.5926 128.24 20.0179C129.36 19.4432 130.64 19.1148 132.16 19.1148C133.92 19.1148 135.36 19.279 136.64 19.6074C137.84 19.9358 138.8 20.2642 139.36 20.5926V15.4203C139.36 15.4203 139.12 15.3382 139.04 15.3382C138.48 15.174 137.84 15.0098 137.12 14.9277C136.4 14.7635 135.6 14.6814 134.72 14.5993C133.84 14.5172 133.04 14.4351 132.16 14.4351C128.8 14.4351 126 15.2561 124.08 16.816C122.08 18.458 121.12 20.5926 121.12 23.384C121.12 24.7797 121.36 25.9291 121.84 26.9143C122.32 27.8995 122.88 28.6384 123.68 29.3773C124.48 30.0341 125.36 30.6088 126.4 31.1014C127.44 31.594 128.56 32.0866 129.76 32.5792C132.16 33.5644 133.84 34.4675 134.96 35.2885C136.08 36.1095 136.56 37.1768 136.56 38.4904C136.56 39.804 136 40.7071 134.96 41.3639C133.92 41.9386 132.24 42.267 130 42.267C127.76 42.267 126.24 42.1028 124.56 41.5281C123.2 41.0355 122.24 40.7071 121.6 40.4608V45.6331C122.08 45.7973 122.96 46.0436 123.68 46.2899C125.36 46.7825 127.28 46.9467 130 46.9467C133.84 46.9467 136.8 46.2078 138.88 44.73C140.96 43.2522 142 41.1176 142 38.162C142 36.6842 141.76 35.4527 141.36 34.4675C140.96 33.4823 140.32 32.6613 139.52 31.9224ZM110.48 46.2078H115.92V15.0919H110.48V46.2078ZM101.76 40.9534C101.44 40.625 101.2 40.1324 101.04 39.5577C100.88 38.983 100.8 38.2441 100.8 37.341V0.888672L95.36 2.12017V38.162C95.36 41.1176 96.08 43.3343 97.44 44.73C98.8 46.1257 101.52 46.9467 105.36 47.0288V42.267C104.48 42.1849 103.76 42.0207 103.2 41.8565C102.56 41.6102 102.08 41.2818 101.76 40.9534Z" fill="#606060"/>
</g>
<defs>
<clipPath id="clip0_1027_17427">
<rect width="160" height="46.2222" fill="white" transform="translate(0 0.888672)"/>
</clipPath>
</defs>
</svg>
