<svg width="160" height="46" viewBox="0 0 160 46" fill="none" xmlns="http://www.w3.org/2000/svg">
<path fill-rule="evenodd" clip-rule="evenodd" d="M124.626 0.361796C125.394 0.361796 126.019 0.981352 126.019 1.7458C126.019 2.50757 125.394 3.12891 124.626 3.12891C124.258 3.12938 123.905 2.98413 123.644 2.72492C123.383 2.46571 123.235 2.11366 123.233 1.7458C123.233 0.981352 123.86 0.361796 124.626 0.361796ZM124.626 3.49424C125.091 3.49495 125.537 3.31131 125.867 2.98356C126.196 2.65582 126.383 2.21071 126.385 1.7458C126.384 1.51557 126.338 1.28776 126.249 1.07539C126.16 0.863028 126.03 0.670267 125.867 0.508133C125.703 0.345999 125.509 0.217671 125.296 0.130485C125.083 0.0432995 124.855 -0.0010344 124.625 1.83167e-05C123.657 1.83167e-05 122.868 0.780463 122.868 1.7458C122.868 2.70846 123.657 3.49424 124.626 3.49424ZM124.276 0.851574C124.369 0.831657 124.465 0.823298 124.561 0.826685C124.862 0.828463 125.071 0.937796 125.071 1.18669C125.071 1.40713 124.876 1.55557 124.569 1.55557H124.276V0.851574ZM124.276 1.74046H124.548C124.805 1.74757 124.927 1.84891 124.993 2.11468C125.055 2.35646 125.108 2.51913 125.14 2.57513H125.437C125.394 2.50046 125.34 2.31557 125.268 2.04713C125.21 1.84713 125.111 1.70757 124.94 1.65424V1.64891C125.173 1.57957 125.361 1.4098 125.361 1.16002C125.362 1.08934 125.347 1.01934 125.316 0.955594C125.286 0.891852 125.241 0.83614 125.185 0.792907C125.049 0.685352 124.847 0.634685 124.54 0.634685C124.345 0.634685 124.132 0.651574 123.988 0.674685V2.57513H124.276V1.73957V1.74046ZM159.655 6.3698C156.666 6.18313 154.467 7.42313 153.465 8.14224V6.30935H147.007V30.3422H153.589V15.0942C154.529 12.584 159.572 12.72 159.621 12.7236L160 12.736V6.3938L159.655 6.3698ZM128.849 18.3609C128.358 15.0818 130.874 13.1654 130.987 13.0845C132.45 12.0125 133.801 11.5805 135.01 11.7991C135.995 11.9751 136.645 12.552 136.961 12.8996L128.849 18.3618V18.3609ZM134.242 6.06046C134.049 6.05335 128.971 5.98402 125.413 10.1227C125.173 10.328 121.628 13.5716 122.94 20.7734C122.978 20.9565 123.869 25.1911 126.544 27.536C126.651 27.6471 129.744 30.7778 135.25 30.84C135.472 30.8489 141.056 31.0489 144.558 27.0027L144.711 26.824L144.606 26.6116L142.3 21.8507L142.059 21.3387L141.696 21.7742C141.672 21.8054 139.13 24.8142 135.788 25.0462H135.771L135.748 25.0498C135.636 25.0702 133.054 25.48 131.18 23.2551L145.669 13.2765L145.904 13.1129L145.801 12.8471C145.774 12.7725 142.869 5.68535 134.242 6.06046ZM114.553 0.550241L114.612 30.0453L114.614 30.408H121.508V0.185796H114.554V0.550241H114.553ZM103.716 19.3156C102.664 20.2694 101.275 20.2222 101.259 20.2222C97.4978 20.0578 97.4391 16.5867 97.4391 16.4409C97.4924 12.6809 101.039 12.544 101.341 12.5369C104.556 12.9289 104.899 15.9636 104.926 16.2569C104.866 17.6036 104.46 18.6338 103.716 19.3165V19.3156ZM97.736 6.5858C93.1644 8.22402 91.5049 12.6676 91.4382 12.8569C89.4382 17.5396 92.2071 21.6551 92.9893 22.6791L90.7538 25.2987L90.5182 25.5787L90.8044 25.8116L95.536 29.6445L95.8427 29.8978L96.0667 29.5671C98.2747 26.3405 101.557 26.6782 101.7 26.6942C103.611 26.8098 104.847 27.8925 104.86 27.9049C108.536 30.6871 107.008 34.8134 106.94 34.9911C105.092 39.2347 101.259 38.8551 101.1 38.8365H101.057C97.8791 38.8365 96.1458 36.3591 96.1289 36.3342L95.8747 35.9698C95.8747 35.9671 95.5689 36.288 95.5689 36.288L91.5209 40.4311L91.2809 40.6711L91.5058 40.92C96.0622 46.1316 101.808 45.3147 102.211 45.2507C108.104 44.9867 111.371 40.4045 111.504 40.208C115.115 35.6142 113.313 29.3431 113.237 29.0765C112.54 25.752 109.641 23.1458 109.518 23.0365L109.486 23.0036L109.444 22.9885C109.393 22.96 109.356 22.9351 109.316 22.9085C110.925 21.3565 111.367 17.8702 111.382 17.72C111.764 15.4489 110.902 12.9662 110.861 12.8596L110.858 12.8347L110.843 12.8098C110.717 12.5852 110.614 12.3485 110.535 12.1031H112.354L112.428 11.8356L113.798 6.82668L113.924 6.37068H103.833C100.177 5.56713 97.8364 6.54135 97.736 6.5858ZM81.9067 6.49691C79.3884 6.45069 77.3698 7.48357 76.4204 8.08357V6.30935H69.7707L69.7724 6.6738L69.8996 29.9236L69.9013 30.2845H76.3547V17.68C76.4684 14.4622 77.7742 13.9449 77.7876 13.9431L77.8169 13.9289L77.8516 13.9138C80.0293 12.6996 81.4204 13.4516 81.6142 13.5707L81.6373 13.5938L81.6933 13.6169C83.5422 14.4258 83.224 17.7325 83.2222 17.7627V30.2845H89.8667V17.8009C89.8667 13.3325 89.5991 12.168 89.4667 11.8649C87.904 6.55735 81.9644 6.49602 81.9067 6.49602V6.49691ZM62.3849 22.0765C62.4009 22.7351 62.2053 23.2809 61.8062 23.6889C60.9058 24.5947 59.2827 24.6134 59.2613 24.6134C57.9493 24.5511 57.0036 24.2018 56.472 23.5734C56.1428 23.1891 55.9783 22.6905 56.0142 22.1858C56.1804 21.2409 56.5964 20.568 57.2498 20.1796C58.632 19.368 60.6791 20.0551 60.7013 20.0596C62.4524 20.5867 62.3902 21.9858 62.3849 22.0765ZM54.9289 6.50846L53.4338 11.64L53.3022 12.1022H62.6356V14.7218C56.8827 12.3485 53.2107 15.2907 53.0551 15.4187C49.592 17.8374 49.6791 21.8454 49.6853 22.0178L49.6871 21.9742C49.3609 25.7751 52.4302 28.2498 52.56 28.3494C54.4764 30 56.6916 30.328 56.7849 30.3422C59.4827 30.8222 61.8311 29.6871 62.8871 29.0507V30.224H68.6587V6.24713H55.008L54.9289 6.50935V6.50846ZM52.2436 12.536V6.05335L51.8711 6.06135C48.9102 6.13068 46.8524 7.21513 45.8924 7.84091V6.33957H39.28L39.2782 6.70135L39.1876 29.8916V30.2516H45.984V15.7271C46.3307 12.5805 51.8267 12.536 51.8773 12.536H52.2418H52.2436ZM40.7582 0.497796H33.5378L33.4444 0.720018L27.8631 14.2027L20.752 0.96713L20.4142 0.336018L20.0978 0.979574L13.5378 14.6285L7.59911 0.624018L7.50756 0.401796H0L0.201778 0.900463L12.7173 31.6054L13.0356 32.3902L13.3884 31.616L20.5351 15.8205L28.1333 31.7138L28.5004 32.4836L28.8044 31.6889L40.5707 0.988463L40.7573 0.496907L40.7582 0.497796Z" fill="#606060"/>
</svg>
