<svg width="160" height="36" viewBox="0 0 160 36" fill="none" xmlns="http://www.w3.org/2000/svg">
<path fill-rule="evenodd" clip-rule="evenodd" d="M9.13006 1.19375C8.04047 1.65871 6.33625 3.08284 5.34317 4.35946C3.88912 6.22802 3.53735 7.31541 3.53735 9.94708C3.53735 13.9027 5.1857 16.3345 10.0755 19.5949C13.5875 21.9365 14.5247 23.4789 13.3087 24.9154C12.282 26.1286 10.4178 26.0533 6.19338 24.6285C3.05224 23.5691 2.51697 23.5392 1.33214 24.3528C0.3778 25.0082 0 25.9362 0 27.6255C0 30.5049 1.30738 31.8015 5.43778 33.0202C14.8936 35.81 22.8991 31.8631 23.0153 24.3553C23.0655 21.0943 22.2445 19.9453 16.3489 15.0237C13.0878 12.3011 12.0407 11.0482 12.1867 10.0442C12.3677 8.79744 12.743 8.7022 17.4613 8.7022H22.541L22.7442 6.62077C22.8769 5.26635 22.5486 4.108 21.8051 3.30194C19.2024 0.482926 13.1538 -0.523556 9.13006 1.19375ZM119.759 1.69979C118.338 3.88081 117.363 11.7621 117.584 19.2836C117.783 26.0638 117.8 26.1323 119.373 26.3122C122.156 26.6315 123.163 25.2877 123.603 20.6661L124.004 16.4466L125.106 18.8598C127.004 23.0164 129.418 22.938 131.222 18.6612C131.848 17.1767 132.582 16.0961 132.851 16.2592C133.121 16.4223 133.341 18.0493 133.341 19.8737C133.341 22.2371 133.695 23.6145 134.572 24.6609C135.742 26.0557 135.894 26.0813 137.588 25.1632L139.373 24.1965L139.277 15.4973C139.163 5.21594 138.423 1.80187 136.082 0.756175C134.592 0.0907903 134.285 0.206563 132.745 2.01599C131.812 3.1121 130.681 5.41387 130.231 7.13179C128.905 12.2053 128.537 12.0279 126.043 5.11199C124.293 0.258849 121.637 -1.18334 119.759 1.69979ZM99.0382 2.51643C98.1086 4.91405 97.6559 13.7707 98.2293 18.35C98.7264 22.3199 98.7715 22.3958 100.641 22.3958C102.526 22.3958 102.549 22.3554 102.863 18.4054L103.181 14.4143L104.282 16.6937C105.908 20.0604 107.646 19.6428 109.046 15.549L109.685 13.6817L110.104 16.1714C110.853 20.6194 111.399 21.7647 112.87 21.9713C115.498 22.341 115.928 19.9098 114.772 11.2044C114.21 6.96623 113.433 2.91852 113.046 2.21019C112.12 0.514047 110.104 0.569444 108.976 2.32223C108.088 3.70341 107.825 4.46403 107.015 8.01441C106.516 10.1948 105.972 9.67756 104.466 5.59002C103.836 3.87832 103.039 2.12803 102.696 1.69979C101.636 0.377111 99.7005 0.809704 99.0382 2.51643ZM31.7485 5.94979C27.3857 7.73307 25.3983 11.2218 25.3983 17.0989C25.3983 25.1264 28.6576 28.7142 35.4484 28.1621C38.4645 27.9168 39.2258 27.5745 41.0215 25.6537C43.6216 22.872 44.7055 19.0913 44.1848 14.6154C43.5816 9.4261 40.6113 6.20997 35.8751 5.61865C34.4782 5.44437 32.621 5.59313 31.7485 5.94979ZM143.08 7.52393C141.486 9.90849 141.106 18.729 142.485 21.3427C143.516 23.2965 146.349 25.1968 148.231 25.1968C148.773 25.1968 149.215 25.4426 149.215 25.7433C149.215 26.8886 147.106 27.9255 144.561 28.0307C140.491 28.1988 140.489 28.2 139.84 30.0238C138.63 33.4266 140.784 35.7782 145.109 35.7782C150.45 35.7782 154.393 31.7753 157.866 22.8297C161.077 14.5575 160.631 9.01342 156.755 9.01342C155.831 9.01342 155.066 9.96824 153.887 12.5924C151.955 16.8922 150.693 18.3892 149.406 17.9049C148.606 17.6037 148.519 16.6868 148.883 12.3945C149.288 7.63223 149.225 7.19466 148.04 6.57347C145.942 5.473 144.232 5.8004 143.08 7.52393ZM78.4535 7.90735C77.7208 8.93251 77.4719 10.826 77.4928 15.221C77.5277 22.7668 78.8167 26.7753 81.8448 28.7615C85.9384 31.446 92.0613 30.0468 94.2328 25.93C96.2501 22.1058 97.3314 8.81922 95.7517 7.2706C94.6297 6.17075 91.7768 6.36246 90.6472 7.61294C89.9964 8.33434 89.5075 10.7008 89.2008 14.6154C88.6579 21.5493 88.0534 23.5019 86.5391 23.2162C85.0393 22.933 84.5859 20.8634 84.5129 13.9618C84.4729 10.2471 84.1637 7.73743 83.6875 7.2706C82.4245 6.03257 79.5425 6.383 78.4535 7.90735ZM57.5475 9.18708C55.8376 10.4139 56.2535 18.7483 58.1488 21.2362C60.1832 23.9077 62.363 25.2161 64.9359 25.3113C66.4141 25.3655 67.3055 25.7034 67.3055 26.2095C67.3055 27.2807 65.6889 28.0662 62.3764 28.604C59.4308 29.0827 58.0707 30.6188 58.7463 32.7059C59.9857 36.5326 66.2687 36.6334 70.4911 32.8938C75.8406 28.1565 78.1957 12.6024 73.9739 9.89106C71.9661 8.60075 69.9482 9.27236 69.4739 11.3893C68.4116 16.1279 67.4859 18.0444 66.1671 18.2348C64.7003 18.4471 64.6368 18.2908 63.699 12.1256C63.1897 8.77565 63.1307 8.69847 60.956 8.51859C59.7337 8.41837 58.1996 8.71839 57.5475 9.18708ZM36.686 11.2274C37.9095 12.0671 38.0949 12.7505 38.0772 16.3625C38.0537 21.2947 37.1362 22.8938 34.5004 22.5981C33.0375 22.4338 32.534 21.924 31.812 19.8768C30.7434 16.8468 31.2806 13.2062 33.0534 11.4683C34.5449 10.0062 34.8763 9.98442 36.686 11.2274Z" fill="#606060"/>
</svg>
