<svg width="40" height="40" viewBox="0 0 40 40" fill="none" xmlns="http://www.w3.org/2000/svg">
<circle cx="20" cy="20" r="20" fill="#101010"/>
<g clip-path="url(#clip0_815_11081)">
<path d="M28.8124 10.339C28.2171 9.79057 25.8077 8.04213 20.4358 8.01869C20.4358 8.01869 14.103 7.639 11.0187 10.4703C9.30303 12.1859 8.69834 14.7031 8.63271 17.8203C8.56709 20.9374 8.4874 26.7781 14.1171 28.3624H14.1218L14.1171 30.7812C14.1171 30.7812 14.0796 31.7609 14.7265 31.9578C15.5046 32.2015 15.964 31.4562 16.7093 30.6546C17.1171 30.214 17.6796 29.5671 18.1062 29.0749C21.9593 29.3984 24.9171 28.6578 25.2546 28.5499C26.0327 28.2968 30.4343 27.7343 31.1468 21.8937C31.8874 15.8656 30.7905 12.0593 28.8124 10.339ZM29.464 21.4531C28.8593 26.3281 25.2921 26.6374 24.6358 26.8484C24.3546 26.9374 21.753 27.5843 18.4858 27.3734C18.4858 27.3734 16.0483 30.3124 15.289 31.0765C15.0405 31.3249 14.7687 31.3015 14.7733 30.8093C14.7733 30.4859 14.7921 26.7921 14.7921 26.7921C14.7874 26.7921 14.7874 26.7921 14.7921 26.7921C10.0202 25.4703 10.3015 20.4968 10.353 17.8953C10.4046 15.2937 10.8968 13.1609 12.3499 11.7265C14.9608 9.35932 20.3374 9.71088 20.3374 9.71088C24.8796 9.72963 27.0546 11.0984 27.5608 11.5578C29.2343 12.9921 30.0874 16.4234 29.464 21.4531ZM22.9483 17.6656C22.9671 18.0687 22.3624 18.0968 22.3437 17.6937C22.2921 16.6624 21.8093 16.1609 20.8155 16.1046C20.4124 16.0812 20.4499 15.4765 20.8483 15.4999C22.1562 15.5703 22.8827 16.3203 22.9483 17.6656ZM23.8999 18.1953C23.9468 16.2078 22.7046 14.6515 20.3468 14.4781C19.9483 14.4499 19.9905 13.8453 20.389 13.8734C23.1077 14.0703 24.5562 15.9406 24.5046 18.2093C24.4999 18.6124 23.8905 18.5937 23.8999 18.1953ZM26.103 18.8234C26.1077 19.2265 25.4983 19.2312 25.4983 18.8281C25.4702 15.0078 22.9249 12.9265 19.8358 12.9031C19.4374 12.8984 19.4374 12.2984 19.8358 12.2984C23.2905 12.3218 26.0702 14.7078 26.103 18.8234ZM25.5733 23.4218V23.4312C25.0671 24.3218 24.1202 25.3062 23.1452 24.9921L23.1358 24.9781C22.1468 24.7015 19.8171 23.5015 18.3452 22.3296C17.5858 21.7296 16.8921 21.0218 16.3577 20.3421C15.8749 19.7374 15.3874 19.0203 14.914 18.1578C13.9155 16.3531 13.6952 15.5468 13.6952 15.5468C13.3812 14.5718 14.3608 13.6249 15.2562 13.1187H15.2655C15.6968 12.8937 16.1093 12.9687 16.3858 13.3015C16.3858 13.3015 16.9671 13.9953 17.2155 14.3374C17.4499 14.6562 17.764 15.1671 17.928 15.4531C18.214 15.964 18.0358 16.4843 17.7546 16.6999L17.1921 17.1499C16.9062 17.3796 16.9437 17.8062 16.9437 17.8062C16.9437 17.8062 17.778 20.9609 20.8952 21.7578C20.8952 21.7578 21.3218 21.7953 21.5515 21.5093L22.0015 20.9468C22.2171 20.6656 22.7374 20.4874 23.2483 20.7734C23.9374 21.1624 24.814 21.7671 25.3952 22.3156C25.7233 22.5828 25.7983 22.9906 25.5733 23.4218Z" fill="white"/>
</g>
<defs>
<clipPath id="clip0_815_11081">
<rect width="24" height="24" fill="white" transform="translate(8 8)"/>
</clipPath>
</defs>
</svg>
