<svg width="40" height="40" viewBox="0 0 40 40" fill="none" xmlns="http://www.w3.org/2000/svg">
<circle cx="20" cy="20" r="20" fill="#101010"/>
<path d="M27.794 12.2011C26.7804 11.1824 25.5732 10.3747 24.2426 9.82512C22.9121 9.27554 21.4849 8.99507 20.0442 9.00007C14.008 9.00007 9.08844 13.8951 9.08844 19.901C9.08844 21.826 9.59698 23.696 10.5477 25.346L9 31L14.804 29.482C16.407 30.351 18.209 30.813 20.0442 30.813C26.0804 30.813 31 25.918 31 19.912C31 16.997 29.8613 14.258 27.794 12.2011ZM20.0442 28.965C18.408 28.965 16.805 28.525 15.401 27.7L15.0693 27.502L11.6201 28.404L12.5377 25.06L12.3166 24.719C11.4076 23.2747 10.9249 21.6052 10.9236 19.901C10.9236 14.907 15.0141 10.8371 20.0332 10.8371C22.4653 10.8371 24.7538 11.7831 26.4673 13.4991C27.3158 14.3394 27.9882 15.339 28.4456 16.4398C28.9029 17.5406 29.1361 18.7209 29.1317 19.912C29.1538 24.906 25.0633 28.965 20.0442 28.965ZM25.0412 22.189C24.7648 22.057 23.4161 21.397 23.1729 21.298C22.9186 21.21 22.7417 21.166 22.5538 21.43C22.3658 21.705 21.8462 22.321 21.6915 22.497C21.5367 22.684 21.3709 22.706 21.0945 22.563C20.8181 22.431 19.9337 22.134 18.8945 21.21C18.0764 20.484 17.5347 19.593 17.3688 19.318C17.2141 19.043 17.3467 18.9 17.4905 18.757C17.6121 18.636 17.7668 18.438 17.8995 18.284C18.0322 18.13 18.0874 18.009 18.1759 17.833C18.2643 17.646 18.2201 17.492 18.1538 17.36C18.0874 17.228 17.5347 15.886 17.3136 15.336C17.0925 14.808 16.8603 14.874 16.6945 14.863H16.1638C15.9759 14.863 15.6884 14.929 15.4342 15.204C15.191 15.479 14.4834 16.139 14.4834 17.481C14.4834 18.823 15.4673 20.121 15.6 20.297C15.7327 20.484 17.5347 23.234 20.2764 24.411C20.9286 24.697 21.4372 24.862 21.8352 24.983C22.4874 25.192 23.0844 25.159 23.5598 25.093C24.0905 25.016 25.1849 24.433 25.406 23.795C25.6382 23.157 25.6382 22.618 25.5608 22.497C25.4834 22.376 25.3176 22.321 25.0412 22.189Z" fill="white"/>
</svg>
