<svg width="53" height="46" viewBox="0 0 53 46" fill="none" xmlns="http://www.w3.org/2000/svg">
<path fill-rule="evenodd" clip-rule="evenodd" d="M27.4401 0.447623L27.8993 0.530084C28.1471 0.585102 28.5773 0.740706 28.8394 0.885299C29.1129 1.03618 29.4691 1.31436 29.6409 1.52052C29.9249 1.85541 29.9874 2.01613 31.0333 5.88307L35.6118 4.6656C39.0848 3.74435 40.3151 3.4427 40.7191 3.42787C41.0073 3.41603 41.5182 3.43792 41.8499 3.4798C42.1793 3.51296 42.7568 3.63843 43.1391 3.76018C43.519 3.87321 44.0839 4.13282 44.3963 4.31999C44.702 4.51831 45.1517 4.85549 45.3849 5.07323C45.6271 5.28854 46.0142 5.75458 46.7025 6.72838L49.742 17.9632C52.4572 28.0239 52.782 29.2725 52.8142 29.9364C52.8445 30.3393 52.8016 30.9766 52.7295 31.3602C52.6575 31.7438 52.4801 32.3144 52.3418 32.6317C52.2125 32.9465 51.9144 33.4654 51.6852 33.7697C51.4673 34.0802 50.9965 34.5707 50.6469 34.8605C50.2995 35.1591 49.7575 35.5285 49.4342 35.6992C48.9299 35.9557 46.7597 36.5559 31.0103 40.7759C15.2609 44.996 13.0814 45.5613 12.5073 45.5937C12.151 45.6051 11.4969 45.5562 11.0468 45.4713C10.5991 45.3951 9.94617 45.2058 9.60221 45.0458C9.25152 44.8969 8.73399 44.5965 8.46457 44.3885C8.1861 44.1829 7.74723 43.7774 7.49305 43.4813C7.23886 43.1851 6.88305 42.6546 6.70781 42.2906C6.40376 41.6996 6.06077 40.4558 0.396711 19.136L0.47008 18.3224C0.505318 17.8739 0.64996 17.1813 0.796832 16.787C0.934642 16.3952 1.22978 15.793 1.45877 15.4515C1.68102 15.121 2.09508 14.6365 2.3746 14.3748C2.65412 14.1131 3.16197 13.7248 4.11973 13.0945L13.5776 10.5136L13.0362 8.52905C12.6652 7.18068 12.5099 6.45636 12.5357 6.26264C12.5504 6.09992 12.6546 5.76377 12.7684 5.49976C12.8731 5.23819 13.0883 4.88162 13.2413 4.69119C13.4056 4.50705 13.6898 4.26277 13.8728 4.14835C14.1418 3.99222 15.7592 3.54016 27.4401 0.447623ZM14.5943 6.22476C14.5548 6.40348 14.675 6.99709 15.0066 8.23459L15.4806 10.0037L29.0733 6.36154C28.2677 3.35494 28.075 2.78076 27.9514 2.64575C27.8553 2.54073 27.6276 2.45229 27.4391 2.43742C27.1825 2.42212 25.5172 2.84031 21.1584 4.00823C16.7997 5.17615 15.1484 5.64663 14.9338 5.7882C14.778 5.89533 14.625 6.08576 14.5943 6.22476ZM4.5007 15.1688C4.25659 15.3089 3.92242 15.5479 3.74875 15.6972C3.57507 15.8465 3.28266 16.205 3.09637 16.4885C2.91007 16.7719 2.70211 17.1919 2.62661 17.4176C2.55112 17.6433 2.4703 18.0666 2.44973 18.3524C2.41038 18.8579 2.52508 19.3223 5.44165 30.207C7.98693 39.7062 8.50944 41.5837 8.69757 41.8509C8.82144 42.0232 9.05283 42.3068 9.21761 42.4868C9.371 42.6605 9.7044 42.9261 9.93935 43.078C10.1834 43.2274 10.6138 43.4203 10.9072 43.5005C11.1939 43.5918 11.7393 43.6698 12.1208 43.6797L12.8065 43.7015C44.8738 35.0997 48.3103 34.1509 48.6585 33.9642C48.8868 33.8376 49.2391 33.5938 49.4399 33.4372C49.6385 33.2719 49.9648 32.8949 50.1736 32.5868C50.3757 32.2898 50.6038 31.8364 50.6723 31.5845C50.7499 31.3302 50.8307 30.9069 50.8583 30.6473C50.9002 30.1878 50.7668 29.6537 47.869 18.8387C44.9547 7.96261 44.8196 7.49444 44.5327 7.07626C44.372 6.8391 44.0904 6.51292 43.9121 6.35519C43.7339 6.19746 43.3438 5.93771 43.0408 5.7854C42.7377 5.63309 42.3052 5.46877 42.0801 5.42632C41.8551 5.38388 41.4439 5.33528 41.1782 5.3224C40.7263 5.30337 39.1563 5.71472 23.0102 10.013C13.2846 12.6097 5.2491 14.7721 5.13597 14.8211C5.0319 14.8677 4.74481 15.0286 4.5007 15.1688Z" fill="#101010"/>
<path d="M39.3635 38.6031C43.9192 37.373 40.1653 38.3695 31.022 40.8195C21.8786 43.2695 18.1475 44.2785 22.7351 43.0586C27.325 41.8475 34.8101 39.8419 39.3635 38.6031Z" fill="#101010"/>
<path d="M23.6271 1.44128C25.265 0.993074 23.9396 1.33886 20.6774 2.21298C17.4151 3.08709 16.0673 3.4576 17.6917 3.03168C19.3184 2.61449 21.9916 1.8982 23.6271 1.44128Z" fill="#101010"/>
<path d="M37.064 4.28581C38.131 3.99058 37.2134 4.2271 35.0204 4.8147C32.8275 5.4023 31.9508 5.64654 33.0768 5.35418C34.2052 5.07053 35.9994 4.58976 37.064 4.28581Z" fill="#101010"/>
<path d="M13.3403 9.73654C13.237 9.27851 13.0315 8.51161 12.8849 8.03715C12.7474 7.56027 12.8297 7.93986 13.0796 8.87234C13.3294 9.80482 13.4526 10.1921 13.3403 9.73654Z" fill="#101010"/>
<path d="M30.8179 5.00673C30.7076 4.52256 30.5091 3.7818 30.3742 3.35092C30.2484 2.91761 30.3353 3.31463 30.5805 4.22968C30.8257 5.14474 30.9372 5.48847 30.8179 5.00673Z" fill="#101010"/>
<path d="M6.75454 35.1793C6.02776 32.3944 4.8205 27.8889 4.06915 25.1573C3.32686 22.4233 3.92727 24.7003 5.4054 30.2167C6.88353 35.7332 7.49038 37.9618 6.75454 35.1793Z" fill="#101010"/>
<path d="M49.2544 23.7915C48.5276 21.0066 47.3203 16.5011 46.569 13.7695C45.8267 11.0355 46.4271 13.3125 47.9052 18.8289C49.3833 24.3454 49.9902 26.574 49.2544 23.7915Z" fill="#101010"/>
<path d="M15.2316 9.18306C15.1213 8.69889 14.9228 7.95814 14.7879 7.52725C14.6621 7.09394 14.7491 7.49096 14.9942 8.40602C15.2394 9.32107 15.351 9.6648 15.2316 9.18306Z" fill="#101010"/>
<path d="M38.8731 36.773C43.4832 35.5284 39.7293 36.5249 30.5316 38.9894C21.3339 41.4539 17.5665 42.4727 22.1541 41.2528C26.7441 40.0416 34.2653 38.0263 38.8731 36.773Z" fill="#101010"/>
<path d="M31.1205 7.83987C35.7306 6.59525 31.9767 7.59177 22.779 10.0563C13.5813 12.5208 9.81391 13.5396 14.4015 12.3197C18.9915 11.1085 26.5127 9.09321 31.1205 7.83987Z" fill="#101010"/>
<path d="M28.9149 5.51663C28.8046 5.03246 28.6061 4.2917 28.4712 3.86082C28.3454 3.42751 28.4324 3.82453 28.6775 4.73958C28.9227 5.65464 29.0343 5.99837 28.9149 5.51663Z" fill="#101010"/>
<path d="M24.0489 3.19638C25.6686 2.75303 24.3614 3.09396 21.1444 3.95593C17.9275 4.81791 16.6068 5.18113 18.204 4.7625C19.8036 4.35259 22.4315 3.64844 24.0489 3.19638Z" fill="#101010"/>
<path fill-rule="evenodd" clip-rule="evenodd" d="M30.8633 18.7497L30.9637 18.7249C30.9295 18.7334 30.896 18.7417 30.8633 18.7497Z" fill="#101010"/>
<path fill-rule="evenodd" clip-rule="evenodd" d="M27.6166 14.3363C27.3006 14.2809 26.9063 14.3679 24.3099 15.0449C22.6855 15.4708 21.2245 15.8903 21.064 15.98C20.9035 16.0697 20.698 16.2088 20.6123 16.2878C20.5243 16.3581 20.4079 16.5761 20.3503 16.7597C20.2549 17.0561 20.2975 17.2876 20.7589 19.1908L21.274 21.2945C17.1561 22.4913 16.9252 22.5719 16.6954 22.8016C16.5579 22.9411 16.4035 23.2347 16.3552 23.4531C16.2808 23.828 16.3208 24.0135 17.1165 26.9106C17.9376 29.8664 17.9771 29.9772 18.2213 30.164C18.3651 30.2656 18.634 30.399 18.8318 30.4487C19.1548 30.5303 19.3769 30.4895 21.3389 29.9824L23.5027 29.4307C24.6525 33.5407 24.7012 33.6864 24.9455 33.8731C25.0802 33.9771 25.3558 34.0994 25.549 34.1317C25.8582 34.1983 26.2254 34.1186 29.0254 33.3684C31.8255 32.6181 32.1833 32.5035 32.4178 32.2912C32.569 32.1667 32.7465 31.923 32.8112 31.7655C32.9293 31.4817 32.8987 31.3311 32.3821 29.3305L31.8395 27.1968C35.9419 26.0509 36.1547 25.9752 36.3936 25.7431C36.5401 25.6011 36.7062 25.3511 36.7799 25.1912C36.8957 24.8986 36.8815 24.8091 36.0548 21.724C35.2422 18.6913 35.1934 18.5456 34.9606 18.3651C34.8282 18.2698 34.5775 18.1315 34.4135 18.0633C34.1221 17.9546 33.9657 17.9872 31.9061 18.4924L30.9637 18.7249C30.9295 18.7334 30.896 18.7417 30.8633 18.7497L29.7015 19.0364C28.5437 15.078 28.4649 14.8563 28.2317 14.6385C28.09 14.5084 27.8121 14.3774 27.6166 14.3363ZM23.4478 22.0851C23.4756 21.8628 23.3437 21.2256 22.9304 19.6831L22.37 17.5916L26.9009 16.3775L27.473 18.5126C27.9096 20.1423 28.0863 20.6928 28.235 20.8491C28.3358 20.9715 28.5456 21.1021 28.7025 21.1441C28.9483 21.2277 29.243 21.1674 33.6017 19.9995L34.7926 24.4441L32.4637 25.0681C30.3795 25.6266 30.1033 25.7192 29.948 25.901C29.8445 26.0221 29.7441 26.2638 29.7204 26.429C29.6949 26.66 29.8314 27.3146 30.8005 30.9312L26.2696 32.1453L25.7092 30.0537C25.3006 28.5286 25.0915 27.8935 24.9539 27.7061C24.8508 27.575 24.643 27.4158 24.4928 27.3627C24.2675 27.2829 23.9819 27.3408 19.5688 28.5233L18.3779 24.0787L20.6886 23.4596C22.7366 22.9108 23.0219 22.8157 23.202 22.618C23.3079 22.5055 23.4173 22.2614 23.4478 22.0851Z" fill="#BEBEBE"/>
</svg>
