<svg width="97" height="46" viewBox="0 0 97 46" fill="none" xmlns="http://www.w3.org/2000/svg">
<path fill-rule="evenodd" clip-rule="evenodd" d="M91.7154 45.2175H57.001L39.6087 45.2188H4.89539C2.51593 45.2188 0.573091 43.1649 0.472165 40.5439C0.346006 37.2606 0.847349 34.0115 1.95974 30.8856C5.1104 22.0347 12.4726 15.8439 20.7167 15.1121C23.1697 14.8962 25.6051 15.1255 27.967 15.7975C31.3656 6.71371 39.4112 0.6875 48.3048 0.6875C57.1984 0.6875 65.244 6.71371 68.6437 15.7975C71.0045 15.1255 73.441 14.895 75.8929 15.1121C84.1371 15.8439 91.5003 22.0347 94.651 30.8844C95.7623 34.0091 96.2625 37.2582 96.1375 40.5427C96.0376 43.1637 94.0948 45.2175 91.7154 45.2175ZM91.7154 42.7514H57.001L39.6087 42.7527H4.89539C3.7073 42.7527 2.73753 41.7367 2.68816 40.439C2.57627 37.5033 3.02495 34.5945 4.02215 31.793C6.86346 23.8105 13.4851 18.2295 20.8923 17.5721C23.4132 17.3489 25.909 17.6489 28.3104 18.4673C28.8775 18.6612 29.4765 18.3258 29.6784 17.7075C32.512 9.00296 39.997 3.15482 48.3048 3.15482C56.6126 3.15482 64.0977 9.00296 66.9313 17.7063C67.1309 18.3234 67.7321 18.6588 68.2993 18.4661C70.7018 17.6489 73.1953 17.3501 75.7174 17.5709C83.1245 18.2283 89.7473 23.8105 92.5886 31.7918C93.5858 34.5921 94.0345 37.5009 93.9215 40.4378C93.871 41.7355 92.9023 42.7514 91.7154 42.7514Z" fill="#101010"/>
</svg>
