<svg width="59" height="59" viewBox="0 0 59 59" fill="none" xmlns="http://www.w3.org/2000/svg">
<path fill-rule="evenodd" clip-rule="evenodd" d="M29.6562 3.36189C30.8164 3.57769 31.3943 3.7337 32.1291 4.05451C32.6638 4.27908 33.4714 4.75142 33.9548 5.09708C34.4558 5.46708 35.065 6.03727 35.3986 6.4454C35.7128 6.83971 36.556 8.2438 37.271 9.57378C37.986 10.9038 38.6817 12.2199 38.8186 12.5108C38.9555 12.8017 39.1427 13.2513 39.2288 13.5233C39.3507 13.9088 39.4319 14.0078 39.6734 14.046C39.8308 14.0709 40.3407 14.2484 40.8175 14.4315C41.2943 14.6146 42.0362 14.9581 42.4731 15.1887C42.9101 15.4194 43.7426 15.9387 44.3331 16.3552C44.9252 16.7611 45.8399 17.5089 46.3856 18.0044C46.9314 18.4999 47.7648 19.3532 48.2375 19.9019C48.712 20.44 49.4697 21.4321 49.9258 22.0857C50.3819 22.7394 50.9855 23.6856 51.2638 24.1712C51.5316 24.655 51.9987 25.5797 52.2957 26.2189C52.5822 26.8565 52.9923 27.8691 53.1999 28.4619C53.4074 29.0547 53.7081 30.1469 53.8714 30.8834C54.0451 31.6217 54.2204 32.7586 54.2765 33.4244C54.3431 34.0918 54.372 35.0656 54.3536 35.5904C54.3352 36.1151 54.2614 36.9219 54.1899 37.3737C54.1201 37.8149 53.9513 38.5421 53.8186 38.9734C53.6841 39.4152 53.3689 40.1838 53.1195 40.672C52.8596 41.1586 52.482 41.7773 52.2676 42.0449C52.0547 42.3021 51.6407 42.7427 51.3389 43.0181C51.0371 43.2934 49.619 44.2322 48.181 45.0924C46.7413 45.9632 45.2751 46.7974 44.9286 46.9472C44.5805 47.1076 44.0019 47.2961 43.6549 47.3812C43.2974 47.4646 42.6498 47.5453 42.2254 47.5751C41.7486 47.5966 40.9287 47.5423 40.1728 47.4228C39.3016 47.285 38.5977 47.109 37.8773 46.8336C37.2989 46.6129 36.5343 46.2766 36.1675 46.0786C35.7919 45.8684 35.4936 45.7135 35.4814 45.7224C35.4693 45.7312 34.8865 46.6944 34.1866 47.8545C33.4866 49.0145 32.7917 50.143 32.6397 50.3559C32.4771 50.5671 32.1725 50.9282 31.9526 51.1626C31.7326 51.397 31.2605 51.7962 30.9201 52.0439C30.5675 52.3005 29.9502 52.6659 29.555 52.8511C29.1494 53.0346 28.4178 53.3066 27.9226 53.4437C27.4259 53.5913 26.571 53.7576 26.0334 53.8233C25.4958 53.8891 24.4879 53.9343 23.8116 53.9243C22.8994 53.9092 22.1176 53.8179 20.8016 53.5667C19.8303 53.3807 18.5872 53.0765 18.0563 52.8956C17.5238 52.7252 16.5509 52.3452 15.9056 52.0708C15.2516 51.7843 14.2113 51.286 13.6092 50.943C12.9949 50.609 11.9305 49.9237 11.2328 49.4365C10.5351 48.9492 9.46577 48.0909 8.84439 47.5295C8.22301 46.9682 7.3509 46.0872 6.89416 45.5734C6.44957 45.0508 5.75373 44.1439 5.35226 43.5527C4.9508 42.9615 4.40306 42.0026 4.12756 41.4313C3.86256 40.8618 3.50045 39.9537 3.3371 39.4218C3.16326 38.8881 2.9796 38.0083 2.90356 37.4686C2.83031 36.8432 2.82065 36.0878 2.88334 35.4193C2.96099 34.6562 3.07556 34.1359 3.2874 33.5448C3.4738 33.0466 4.18318 31.7588 5.13303 30.1752C5.98999 28.7708 6.90608 27.3326 7.67557 26.3451L6.80264 24.7209C6.32173 23.8156 5.82708 22.7251 5.71177 22.2977C5.58761 21.858 5.46354 21.2138 5.4239 20.8522C5.38425 20.4905 5.40556 19.6754 5.47542 19.0296C5.5647 18.1929 5.6909 17.5991 5.9282 16.9151C6.10575 16.4047 6.4691 15.536 6.73728 14.9969C7.0143 14.47 7.44833 13.6986 7.7159 13.2994C7.98348 12.9002 8.5175 12.177 8.91384 11.712C9.30134 11.2348 9.96299 10.521 10.3825 10.1135C10.802 9.70603 11.541 9.04753 12.0235 8.65C12.5165 8.25413 13.4058 7.59787 14.016 7.20976C14.6278 6.81114 15.6015 6.23285 16.179 5.91496C16.7654 5.60924 17.8585 5.0929 18.6178 4.78222C19.3771 4.47155 20.4259 4.09897 20.9559 3.94587C21.4858 3.79276 22.4362 3.56616 23.0783 3.45232C23.7221 3.32798 24.6592 3.18543 25.1725 3.13739C25.6858 3.08934 26.5627 3.05572 27.1219 3.058C27.765 3.07356 28.7059 3.17929 29.6562 3.36189ZM22.9633 5.20025C23.6418 5.05988 24.6033 4.89963 25.1166 4.85159C25.6299 4.80354 26.4543 4.76162 26.961 4.7556C27.5411 4.7612 28.3876 4.85199 29.287 5.01578C30.2898 5.20667 30.929 5.38315 31.5008 5.64588C31.9444 5.8345 32.6327 6.24489 33.0282 6.53359C33.4712 6.8621 33.9628 7.35984 34.3074 7.83433C34.6696 8.33315 34.9501 8.87289 35.1046 9.3927C35.2409 9.82348 35.3843 10.4815 35.4135 10.8415C35.4515 11.2137 35.3981 11.9591 35.3018 12.5684C35.2071 13.1673 34.999 14.0067 34.8347 14.433C34.6688 14.8698 34.327 15.6019 34.081 16.0691C33.8349 16.5364 33.2948 17.3663 32.8835 17.9259C32.4722 18.4854 31.773 19.301 31.3363 19.7488C30.8996 20.1967 30.0705 20.9486 29.4891 21.4274C28.9077 21.9062 27.9349 22.6139 27.3143 23.0004C26.7042 23.3885 25.7685 23.9297 25.243 24.1912C24.7262 24.4649 23.821 24.8817 23.2568 25.1155C22.6926 25.3494 21.6907 25.6971 21.037 25.8844C20.3833 26.0718 19.2566 26.3244 18.5272 26.4459C17.7978 26.5675 16.6192 26.6719 15.9081 26.6779C14.8633 26.6849 14.3334 26.6334 13.1539 26.4038C12.2771 26.2328 11.4312 26.0021 11.0385 25.8323C10.6755 25.678 10.054 25.3213 9.65689 25.0431C9.11223 24.6769 8.75985 24.3197 8.25621 23.6262C7.78791 22.9814 7.52344 22.4765 7.36727 21.9672C7.24863 21.5607 7.14502 20.8551 7.122 20.3884C7.09731 19.9322 7.13515 19.2167 7.19829 18.8174C7.26309 18.4077 7.48551 17.6137 7.70619 17.0347C7.91471 16.4646 8.30622 15.622 8.57327 15.158C8.84032 14.6941 9.28205 14.0102 9.55514 13.6441C9.81939 13.2659 10.3904 12.5809 10.8078 12.1192C11.2372 11.6487 12.0017 10.8973 12.524 10.4522C13.0375 9.99495 13.9439 9.29832 14.5347 8.89638C15.1255 8.49444 16.2175 7.84871 16.9586 7.449C17.6997 7.04929 18.7807 6.5418 19.3432 6.31847C19.9058 6.09513 20.6828 5.80879 21.0574 5.68497C21.4304 5.57166 22.2831 5.35113 22.9633 5.20025ZM35.9911 16.102L36.2963 15.3964C36.454 15.0122 36.6874 14.2845 36.8003 13.7746C36.9116 13.2753 37.0393 12.8755 37.0708 12.8805C37.1023 12.8855 37.2139 13.0647 37.3099 13.2737C37.4077 13.4722 37.5616 13.9274 37.6483 14.2641C37.7454 14.6026 37.8303 15.1544 37.8434 15.4796C37.867 15.8064 37.7982 16.5816 37.6897 17.1999C37.59 17.8302 37.4671 18.4031 37.4118 18.4805L36.4894 20.6392L36.1599 21.1578C35.9752 21.4409 35.5833 22.0143 35.2914 22.4312C34.9906 22.836 34.6275 23.2954 34.2234 23.6731L32.9935 24.9862L32.6017 25.355C32.3761 25.5562 31.5045 26.2369 30.6429 26.8544C29.7918 27.4736 29.0236 27.9767 28.9606 27.9668L27.279 28.7347C27.3077 28.8253 26.9634 29.0293 26.2565 29.3483C25.668 29.5999 24.5932 30.0006 23.8682 30.2306C23.1327 30.4589 22.5259 30.6214 22.5083 30.597L20.6715 30.985C20.637 31.0032 20.3816 31.0271 20.0495 31.0582L20.0494 31.0582C19.9288 31.0695 19.7981 31.0817 19.6642 31.0949C19.1525 31.1324 18.3525 31.1567 17.8806 31.1467C17.4071 31.1472 16.9855 31.0913 16.9607 31.0443L14.8706 30.7891L14.4292 30.6547C14.1927 30.585 13.6563 30.3709 13.2425 30.1978C12.8199 30.0125 12.2404 29.6624 11.9327 29.4306C11.6267 29.1884 11.2042 28.7985 10.9943 28.5607C10.7845 28.3229 10.4879 27.9529 10.3498 27.7372C10.203 27.5094 10.1527 27.3507 10.2367 27.364C10.3102 27.3756 10.7201 27.505 11.1477 27.6588C11.5753 27.8126 12.2775 27.999 13.504 28.2038L15.6428 28.4236C15.6914 28.3882 16.149 28.3528 16.6573 28.3363C17.1551 28.3181 17.8745 28.2596 18.2392 28.1988C18.6023 28.1486 18.9741 28.1104 19.0791 28.127L19.0834 28.0996L21.0197 27.8309C20.9772 27.7595 21.4524 27.5439 22.2244 27.2891C22.9284 27.0559 23.9961 26.6324 24.6001 26.351C25.4113 25.9839 25.7285 25.8833 25.7992 25.9807L27.2825 25.1061L29.3253 23.6199C30.4456 22.7956 31.389 22.1371 31.431 22.1438L32.699 20.7936L33.3413 20.0659C33.6962 19.659 34.2064 19.0181 34.495 18.6223L35.0152 17.9184L35.9911 16.102ZM38.8889 19.4141C39.072 18.9369 39.3033 17.9504 39.4335 17.1956L39.6671 15.8542L40.1279 16.0024C40.3837 16.0859 41.0079 16.357 41.4941 16.6169C41.9819 16.8664 42.8442 17.4012 43.4048 17.8022C43.9655 18.2032 44.8062 18.8746 45.2641 19.3131C45.7236 19.7412 46.4212 20.433 46.7967 20.8478C47.1706 21.2731 47.9405 22.2564 48.4938 23.0439C49.0455 23.8419 49.7678 24.9899 50.0908 25.601C50.4243 26.2137 50.8902 27.2136 51.1397 27.813C51.3788 28.4108 51.7221 29.3697 51.8821 29.9227C52.0421 30.4757 52.2666 31.4373 52.3747 32.0467C52.4827 32.6561 52.6028 33.6658 52.6429 34.2968C52.7011 35.2213 52.6739 35.7339 52.4606 37.014C52.2812 38.1487 52.1273 38.7813 51.9166 39.2972C51.7469 39.6903 51.3869 40.3334 51.1088 40.7309C50.7479 41.2446 50.3405 41.6433 49.7325 42.0856C49.1611 42.5013 48.6322 42.7838 48.1459 42.9331C47.7397 43.0519 47.0943 43.1868 46.6998 43.232C46.2197 43.2746 45.6008 43.2413 44.7837 43.1013C44.0699 42.9884 43.2732 42.787 42.8174 42.6073C42.402 42.4446 41.7197 42.1321 41.3126 41.917C40.9055 41.7018 40.168 41.2621 39.6935 40.9286C39.2174 40.6056 38.4595 40.0227 38.0143 39.64C37.5691 39.2573 36.861 38.5638 36.4275 38.1075C35.9956 37.6408 35.2031 36.6647 34.6641 35.9225C34.1234 35.1909 33.4475 34.1578 33.1532 33.6375C32.8589 33.1171 32.4095 32.2168 32.1445 31.6472C31.89 31.0793 31.5263 30.1817 31.0251 28.7241L32.0741 27.9423C32.6472 27.516 33.4614 26.8586 33.8864 26.4843C34.3009 26.1084 34.9924 25.41 35.4203 24.95C35.8376 24.4883 36.4915 23.6872 36.8509 23.184C37.2102 22.6808 37.7553 21.8194 38.0462 21.2731C38.337 20.7268 38.7164 19.8929 38.8889 19.4141ZM26.5642 31.077L27.5755 30.6015C28.1221 30.3433 28.7642 30.0249 29.0007 29.89C29.2268 29.7535 29.4373 29.6468 29.4688 29.6517C29.4898 29.6551 29.6394 30.0018 29.7879 30.4237C29.9364 30.8457 30.2803 31.6647 30.5436 32.2448C30.7981 32.8127 31.1305 33.5006 31.5313 34.2317L32.3944 35.7143L33.2073 36.8336C33.6474 37.4525 34.3659 38.3522 34.7978 38.819C35.2175 39.2946 35.5495 39.7132 35.5235 39.7414L36.9347 40.9554C36.9662 40.9604 37.3302 41.2441 37.7489 41.5903C38.1764 41.9487 38.8128 42.4155 39.1729 42.6555C39.5347 42.885 39.8214 43.1134 39.7954 43.1416L41.7157 43.9945L42.1505 44.171C42.3941 44.2634 43.1438 44.4896 45.0648 44.998L44.3126 45.3314C43.8965 45.5133 43.2621 45.7145 42.8974 45.7753C42.5328 45.836 41.8288 45.8647 41.3271 45.8392C40.8238 45.8242 40.1713 45.7318 39.2973 45.4751L37.0209 44.5797C37.0166 44.5781 37.0123 44.5764 37.0079 44.5746C36.8676 44.5093 36.3357 44.199 35.8263 43.8816C35.317 43.5641 34.7144 43.1565 34.083 42.6582L32.7121 41.4614L32.2537 40.9581C31.9963 40.6805 31.4054 39.9948 30.9448 39.4373C30.4842 38.8798 29.9684 38.1952 29.5322 37.4155L28.6045 35.9334C28.5658 35.9057 28.2677 35.3417 27.953 34.6781C27.64 34.004 27.1978 32.9217 26.5642 31.077ZM7.16861 31.4556C7.19475 31.0182 7.31544 30.3911 7.46203 29.9405C7.5948 29.5092 7.87129 28.9175 8.07143 28.6046C8.2699 28.3021 8.47056 28.0539 8.50206 28.0588C8.54405 28.0655 8.78095 28.4045 9.04988 28.8132C9.30997 29.2097 9.77774 29.7898 10.0859 30.0862C10.3925 30.3932 10.936 30.8345 11.2962 31.0745C11.6563 31.3146 12.3303 31.6796 12.7827 31.8804C13.5158 32.2117 13.8467 32.2964 15.7694 32.5897C17.239 32.8221 18.1501 32.9123 18.6496 32.8836C19.0513 32.861 19.3729 32.8688 19.3679 32.9003C19.3646 32.9213 18.6442 34.1428 17.7563 35.6069C16.87 37.0606 16.1164 38.2875 16.0888 38.3262C16.0507 38.3633 15.9247 38.3433 15.807 38.2709C15.7726 38.2497 15.7204 38.2183 15.6449 38.1729C15.4624 38.0631 15.1435 37.8713 14.6094 37.543L14.2008 38.2215C13.9802 38.5958 13.8066 38.9453 13.821 38.9906C13.8353 39.036 14.1253 39.2434 14.4695 39.4486C14.8048 39.6416 15.0948 39.849 15.1091 39.8943C15.1235 39.9397 15.072 40.0608 15.0046 40.147C14.9355 40.2438 14.7475 40.5479 14.2753 41.3563L15.7271 42.1782L16.129 41.5418C16.3463 41.1884 16.5569 40.8771 16.6056 40.8417C16.6437 40.8047 16.9945 40.9679 18.1043 41.6388L17.6592 42.3437C17.4143 42.7358 17.2407 43.0852 17.2777 43.1234C17.3163 43.151 17.6378 43.3634 17.9908 43.5808C18.4808 43.8844 18.6648 43.9458 18.7427 43.8612C18.7963 43.7943 18.8428 43.7048 18.8494 43.6627C18.8561 43.6207 19.0285 43.3464 19.5792 42.5182L20.1377 42.8649C20.5575 43.136 20.8939 43.2538 21.4381 43.3506C21.858 43.417 22.405 43.4281 22.7261 43.3712C23.0924 43.2999 23.498 43.1164 23.9601 42.7803C24.4448 42.4369 24.7306 42.1267 24.9562 41.7209C25.1336 41.4151 25.3217 40.9064 25.3699 40.6017C25.4181 40.297 25.4177 39.8231 25.3736 39.5577C25.3206 39.2801 25.303 39.0512 25.3135 39.0528C25.324 39.0545 25.5749 38.965 25.8606 38.8594C26.1358 38.7521 26.5498 38.5161 26.7719 38.3358C26.9941 38.1556 27.2473 37.9156 27.3319 37.789C27.4822 37.5866 27.5474 37.6508 28.7297 39.2916C29.4206 40.2301 30.27 41.3228 30.6295 41.7028C30.9786 42.0811 31.6673 42.7607 32.1672 43.2059C32.6549 43.66 33.2636 44.1655 33.5133 44.3557C33.7646 44.5355 33.969 44.7401 33.9573 44.8136C33.9457 44.8872 33.7522 45.1581 33.5167 45.4224C33.2934 45.6779 32.8441 46.0699 32.5401 46.291C32.2273 46.5 31.6934 46.814 31.3453 46.9743C30.9971 47.1347 30.3367 47.3641 29.8764 47.4851C29.4056 47.6045 28.5873 47.7443 28.053 47.789C27.5065 47.8426 26.4407 47.8463 25.6854 47.7915C24.6085 47.7289 23.9787 47.6293 22.9019 47.362C22.1246 47.1745 20.9351 46.8033 20.2534 46.5555C19.5733 46.2972 18.4773 45.8115 17.821 45.4708C17.1647 45.1301 16.1306 44.525 15.5263 44.1279C14.9203 43.7413 14.0907 43.1363 13.6703 42.8006C13.25 42.4649 12.5231 41.8222 12.0669 41.3732C11.5985 40.9329 10.8706 40.1609 10.4558 39.6538C10.0306 39.145 9.4137 38.2828 9.0824 37.7243C8.74943 37.1763 8.33256 36.4103 8.14596 36.0254C7.96984 35.6422 7.73415 35.0234 7.61053 34.6485C7.4869 34.2736 7.32915 33.5702 7.26579 33.0863C7.19194 32.6008 7.14746 31.8615 7.16861 31.4556ZM21.5859 32.5511L22.275 32.4124C22.6518 32.3428 23.3807 32.1565 23.8774 32.0089C24.3759 31.8508 24.8257 31.7281 24.8903 31.7276C24.9428 31.7359 25.0797 32.0268 25.1945 32.3895C25.3093 32.7523 25.6184 33.5873 25.8895 34.2548C26.3013 35.2568 26.3752 35.5377 26.3225 35.9386C26.2727 36.2538 26.156 36.5154 25.9498 36.7304C25.794 36.8996 25.5231 37.1153 25.3684 37.2092C25.2048 37.2911 24.8506 37.3535 24.5937 37.3452C24.1655 37.3313 23.8865 37.1903 20.1849 34.9464L21.5859 32.5511ZM4.65724 37.606C4.4692 36.6178 4.47094 36.4027 4.64374 35.31C4.77116 34.4363 4.90506 33.9298 5.11298 33.4997C5.27445 33.159 5.42647 32.9462 5.46899 33.0175C5.50267 33.0767 5.59314 33.4571 5.6593 33.8553C5.73594 34.2551 5.92519 34.9635 6.38329 36.2851L7.25614 38.1139L8.29545 39.5706C8.85762 40.3702 9.3386 41.0709 9.34079 41.1251L11.1143 42.8379C11.3573 43.0701 12.0295 43.6503 12.6029 44.1071C13.1851 44.5761 13.8866 45.107 14.6771 45.6197L16.1978 46.5495C16.2074 46.5544 16.2294 46.5656 16.262 46.582L16.3179 46.6101C16.5196 46.7117 16.9394 46.9231 17.3927 47.1584C18.0015 47.4593 18.9975 47.8968 19.6058 48.133C20.2262 48.3604 20.7311 48.5695 20.7488 48.5938L24.2985 49.349C25.2853 49.5051 26.0902 49.6539 26.0852 49.6855L28.2137 49.4944L28.8701 49.4259C29.2315 49.3861 29.978 49.2242 30.5322 49.0534C31.0865 48.8826 31.5573 48.7632 31.575 48.7876C31.5926 48.8119 31.4495 49.0369 31.2698 49.2885C31.0901 49.5401 30.7109 49.9647 30.4213 50.2312C30.1422 50.4994 29.574 50.8941 29.1756 51.1003C28.7666 51.3049 28.0979 51.5868 27.678 51.725C27.2475 51.8615 26.8795 51.9433 26.8425 51.9052L24.3871 52.2151C24.3388 52.2296 24.2884 52.2338 24.2294 52.235C24.0565 52.2399 23.1962 52.1685 20.7724 51.9144L18.7986 51.3319C18.6157 51.2922 18.0988 51.1182 17.6035 50.9286C17.0759 50.7267 16.1306 50.308 15.5219 50.0071C14.9026 49.7046 14.4005 49.4098 14.4071 49.3677L12.846 48.4209C12.7797 48.4319 12.2632 48.0918 11.6954 47.6681C11.1171 47.2428 10.299 46.5642 9.86764 46.1622C9.42578 45.7584 9.02975 45.405 8.98224 45.3652C8.98127 45.3644 8.98044 45.3633 8.97976 45.362L7.78329 43.8295C7.74349 43.877 7.45795 43.5734 7.13986 43.1354C6.83226 42.6991 6.36343 41.9896 5.65612 40.747L4.93809 38.6196C4.88945 38.655 4.75813 38.1927 4.65724 37.606ZM17.5753 39.3367C17.5366 39.309 17.8413 38.7434 18.2482 38.0754C18.6534 37.418 19.0344 36.7783 19.1085 36.65C19.1809 36.5322 19.271 36.4388 19.3025 36.4438C19.334 36.4487 20.1802 36.9487 21.1917 37.561C22.2136 38.1749 23.1411 38.7739 23.2626 38.89C23.3841 39.0062 23.5437 39.2899 23.6154 39.5166C23.696 39.7555 23.7252 40.1155 23.6936 40.3151C23.662 40.5147 23.5111 40.857 23.359 41.0698C23.207 41.2827 22.9102 41.5265 22.703 41.6122C22.4731 41.7051 22.1465 41.7288 21.83 41.6895C21.452 41.6298 20.9046 41.3493 19.4893 40.5009C18.7525 40.0549 18.0995 39.6564 17.7803 39.4616C17.6613 39.389 17.5886 39.3446 17.5753 39.3367Z" fill="#101010"/>
<path fill-rule="evenodd" clip-rule="evenodd" d="M42.6465 20.5572C43.0366 20.6081 43.5498 20.7646 43.8271 20.9162C44.1746 21.1004 44.4844 21.3863 44.8644 21.9095C45.2708 22.4691 45.4238 22.7948 45.5009 23.2593C45.5709 23.7012 45.5548 24.0755 45.4214 24.6467C45.2919 25.2616 45.1614 25.5425 44.8501 25.9456C44.634 26.2237 44.2664 26.5748 44.0387 26.7219C43.811 26.8689 43.3513 27.0547 43.0252 27.1431C42.497 27.2857 42.4362 27.3299 42.3863 27.6451C42.3581 27.8237 42.3469 28.1666 42.3557 28.3833C42.3693 28.7732 42.3975 28.7992 42.9886 29.0757C43.3289 29.2372 43.6338 29.3501 43.6598 29.3219C43.6753 29.292 43.8693 29.0858 44.0772 28.8602C44.2955 28.6363 44.7001 28.3233 44.9941 28.1652C45.2881 28.0071 45.797 27.8507 46.1269 27.8059C46.5109 27.759 46.948 27.785 47.3524 27.8813C47.6938 27.9676 48.1672 28.1717 48.4097 28.3393C48.6539 28.4964 49.0041 28.7994 49.1963 29.0129C49.3973 29.2385 49.6281 29.6843 49.7699 30.1482C49.957 30.8024 49.9762 31.0208 49.8682 31.7037C49.7702 32.3236 49.6728 32.599 49.3793 33.0264C49.1825 33.3183 48.8066 33.7219 48.5408 33.9061C48.2838 34.1023 47.7842 34.3356 47.446 34.4329C46.9492 34.5805 46.6575 34.5882 46.0381 34.4902C45.5973 34.4205 45.1033 34.2778 44.9067 34.1605C44.7205 34.0449 44.3847 33.7872 44.1593 33.5793C43.9428 33.3835 43.6369 32.9366 43.4945 32.6126C43.3432 32.2764 43.1959 31.7792 43.1337 31.0156L42.341 30.6533C41.6797 30.3441 41.5046 30.2948 41.3078 30.3822C41.1702 30.4358 41.089 30.5414 41.1055 30.641C41.1342 30.7316 41.1628 31.0269 41.1843 31.2996C41.2057 31.5722 41.1658 32.0289 41.0894 32.3076C41.0114 32.5968 40.7985 33.0585 40.6122 33.3521C40.3999 33.6739 40.0412 34.0372 39.6692 34.2799C39.2956 34.5331 38.8342 34.7293 38.459 34.7885C38.1258 34.8542 37.5876 34.8553 37.2727 34.8055C36.9578 34.7557 36.476 34.6041 36.1971 34.463C35.8987 34.3082 35.5099 33.9775 35.2222 33.6196C34.9239 33.2602 34.6666 32.778 34.5535 32.4047C34.399 31.8849 34.3847 31.6349 34.4944 30.9415C34.6041 30.2481 34.6964 30.0043 35.0021 29.568C35.199 29.2761 35.5942 28.8863 35.8583 28.7127C36.1347 28.5302 36.5679 28.308 36.8398 28.2217C37.2283 28.0786 37.4869 28.0764 38.2742 28.2009C39.072 28.3271 39.2963 28.4056 39.7233 28.6993C40.1696 29.0068 40.2414 29.0289 40.41 28.9156C40.5769 28.8128 40.6228 28.6585 40.6562 28.0392C40.6879 27.635 40.7002 27.2169 40.682 27.1279C40.6743 27.0405 40.4241 26.7856 40.1269 26.5555C39.8192 26.3238 39.458 25.9543 39.3216 25.7281C39.1747 25.5003 38.9804 25.028 38.8938 24.6913C38.7785 24.2638 38.7527 23.8828 38.8225 23.4416C38.8773 23.0948 39.0045 22.6304 39.1041 22.4092C39.2036 22.188 39.4662 21.8203 39.6757 21.5842C39.8852 21.3481 40.2881 21.0457 40.57 20.8964C40.8397 20.756 41.2734 20.5985 41.5193 20.5404C41.7636 20.4929 42.2686 20.4974 42.6465 20.5572ZM41.2274 22.4542C41.1075 22.5322 40.9135 22.7384 40.8029 22.8932C40.6907 23.0586 40.5657 23.3726 40.5292 23.6038C40.4926 23.8349 40.5024 24.1811 40.5703 24.3641C40.626 24.556 40.7839 24.8502 40.9286 25.0239C41.0838 25.1992 41.3843 25.4082 41.6506 25.4934C42.0291 25.6179 42.202 25.6129 42.622 25.4747C42.906 25.3797 43.2641 25.1563 43.4322 24.9783C43.6417 24.7422 43.7462 24.4895 43.8043 24.1218C43.8625 23.754 43.8306 23.4798 43.7041 23.1905C43.5992 22.9693 43.3557 22.6724 43.1607 22.5446C42.9569 22.4047 42.6237 22.2659 42.4016 22.2415C42.1917 22.2083 41.8895 22.2143 41.7342 22.2436C41.5773 22.2834 41.3579 22.3779 41.2274 22.4542ZM45.3962 29.9088C45.242 30.0675 45.0468 30.3489 44.9854 30.5331C44.9257 30.7067 44.8725 31.0429 44.8691 31.2685C44.8674 31.4836 44.9733 31.8342 45.1009 32.0482C45.2406 32.2534 45.4908 32.5083 45.656 32.6206C45.8333 32.724 46.1382 32.8369 46.3167 32.8651C46.5056 32.895 46.8687 32.8447 47.1212 32.7446C47.4174 32.6407 47.6882 32.4251 47.8939 32.1453C48.1133 31.8462 48.2195 31.583 48.2451 31.2855C48.2656 31.0195 48.179 30.6827 48.0299 30.4007C47.888 30.1413 47.634 29.8427 47.4566 29.7393C47.2898 29.6375 46.9849 29.5247 46.7959 29.4948C46.6158 29.4771 46.2909 29.4903 46.0798 29.5323C45.8687 29.5743 45.5626 29.7413 45.3962 29.9088ZM36.5567 30.3523C36.4284 30.4828 36.2543 30.7675 36.1862 30.9937C36.0822 31.3111 36.1015 31.5295 36.2273 31.9586C36.3349 32.2987 36.5226 32.6084 36.732 32.7815C36.9413 32.9546 37.243 33.0885 37.5369 33.135C37.8203 33.1798 38.1695 33.1489 38.4099 33.0577C38.6276 32.9736 38.9454 32.7331 39.1185 32.5236C39.3589 32.2278 39.4308 32.0453 39.4553 31.6184C39.4808 31.3209 39.4202 30.9559 39.328 30.7906C39.2463 30.6269 39.0292 30.3664 38.8514 30.1983C38.6349 30.0025 38.3841 29.8875 38.0481 29.8344C37.7332 29.7845 37.444 29.8214 37.1806 29.9448C36.9717 30.041 36.6849 30.2218 36.5567 30.3523Z" fill="#101010"/>
<path fill-rule="evenodd" clip-rule="evenodd" d="M31.0041 9.67021C31.3416 9.71283 31.4996 9.80243 31.6675 10.0336C31.7912 10.2039 31.8718 10.4428 31.8502 10.5794C31.8303 10.7055 30.2032 13.2373 28.2373 16.211C26.0436 19.5363 24.5791 21.6523 24.4399 21.7164C24.3111 21.7822 21.3025 21.8233 17.752 21.8218C14.2014 21.8202 11.2272 21.7806 11.1482 21.7358C11.0692 21.691 10.9284 21.561 10.8383 21.4499C10.7395 21.3266 10.7081 21.117 10.7446 20.8859C10.7828 20.6442 11.9488 18.7825 14.2824 15.2532C16.193 12.3569 17.861 9.90694 17.9947 9.80963C18.2014 9.65925 19.1849 9.63172 24.3953 9.61577C27.7851 9.61342 30.7521 9.63037 30.9936 9.66855L31.0041 9.67021ZM19.3301 11.367C19.3042 11.3952 19.2529 12.3993 19.2331 13.6131C19.2133 14.8269 19.2058 15.8272 19.2146 15.8394C19.2339 15.8532 21.1146 14.8476 23.3865 13.6131C26.0221 12.1884 27.4551 11.3597 27.296 11.3453C27.1683 11.3358 25.3422 11.3163 23.2332 11.3166C21.1226 11.3274 19.3666 11.3404 19.3301 11.367ZM20.1135 17.4354C20.14 17.4719 20.9868 18.0365 21.995 18.6698L23.8339 19.8329C24.248 19.1877 25.2387 17.6859 26.3002 16.0769C27.3616 14.4679 28.2224 13.1071 28.2186 13.0635C28.2059 13.0076 26.3667 13.9552 24.1208 15.1615C21.8853 16.3694 20.0782 17.3867 20.1135 17.4354ZM14.279 18.4726C14.295 18.5074 14.9615 18.1713 15.7722 17.7395C16.5846 17.2972 17.2908 16.9136 17.3378 16.8887C17.397 16.855 17.4563 16.2074 17.4815 15.436C17.5066 14.6647 17.5042 13.932 17.4838 13.7887C17.4612 13.5913 17.1361 14.0138 15.8557 15.9866C14.9772 17.323 14.2718 18.4499 14.279 18.4726ZM16.6142 19.2188C15.7096 19.7003 14.9878 20.1139 14.9983 20.1155C15.0071 20.1277 16.3194 20.1306 17.9234 20.1258C19.5169 20.1194 20.8711 20.129 20.9341 20.1389C20.9971 20.1489 21.0037 20.1069 20.9579 20.0565C20.9121 20.0062 20.2884 19.5953 19.5631 19.1467L18.2407 18.3237L16.6142 19.2188Z" fill="#101010"/>
</svg>
