<svg width="27" height="60" viewBox="0 0 27 60" fill="none" xmlns="http://www.w3.org/2000/svg">
<path d="M19.2154 28.5071H7.56161C4.92723 28.5071 2.78351 26.3645 2.78351 23.7301V14.6887C2.78351 12.0544 4.92613 9.91174 7.56161 9.91174H12.2925V16.7271C12.2925 17.333 12.7832 17.8236 13.3891 17.8236C13.995 17.8236 14.4856 17.333 14.4856 16.7271V9.91174H19.2165C21.8509 9.91174 23.9946 12.0544 23.9946 14.6887C23.9946 15.2946 24.4853 15.7853 25.0912 15.7853C25.6971 15.7853 26.1877 15.2946 26.1877 14.6887C26.1877 10.8458 23.0616 7.71863 19.2176 7.71863H14.4867V1.53992C14.4867 0.93401 13.9961 0.443359 13.3902 0.443359C12.7843 0.443359 12.2936 0.93401 12.2936 1.53992V7.71863H7.5627C3.71981 7.71863 0.592587 10.8447 0.592587 14.6887V23.7301C0.592587 27.573 3.71981 30.7003 7.5627 30.7003H19.2165C21.8509 30.7003 23.9946 32.8429 23.9946 35.4784V44.5197C23.9946 47.1541 21.8509 49.2978 19.2165 49.2978H14.4856V43.1224C14.4856 42.5165 13.995 42.0259 13.3891 42.0259C12.7832 42.0259 12.2925 42.5165 12.2925 43.1224V49.2978H7.56161C4.92723 49.2978 2.78351 47.1541 2.78351 44.5197C2.78351 43.9138 2.29286 43.4232 1.68695 43.4232C1.08105 43.4232 0.590393 43.9138 0.590393 44.5197C0.590393 48.3637 3.71761 51.4899 7.56051 51.4899H12.2914V58.3096C12.2914 58.9155 12.7821 59.4062 13.388 59.4062C13.9939 59.4062 14.4845 58.9155 14.4845 58.3096V51.4899H19.2154C23.0594 51.4899 26.1855 48.3637 26.1855 44.5197V35.4784C26.1855 31.6344 23.0594 28.5071 19.2154 28.5071Z" fill="#101010"/>
</svg>
