<svg width="62" height="65" viewBox="0 0 62 65" fill="none" xmlns="http://www.w3.org/2000/svg">
<path d="M40.1335 13.7673C39.8525 13.7673 39.5715 13.6598 39.3574 13.4457C38.9282 13.0165 38.9282 12.3228 39.3574 11.8936L43.6416 7.60949C44.0707 7.1803 44.7645 7.1803 45.1936 7.60949C45.6228 8.03867 45.6228 8.73349 45.1936 9.16157L40.9095 13.4457C40.6955 13.6609 40.4145 13.7673 40.1335 13.7673Z" fill="#101010"/>
<path d="M45.8084 19.4424C45.5274 19.4424 45.2464 19.3348 45.0323 19.1207C44.6032 18.6916 44.6032 17.9978 45.0323 17.5687L49.6238 12.9772C50.053 12.548 50.7467 12.548 51.1759 12.9772C51.6051 13.4063 51.6051 14.1001 51.1759 14.5292L46.5844 19.1207C46.3704 19.3359 46.0894 19.4424 45.8084 19.4424Z" fill="#101010"/>
<path d="M51.4832 25.117C51.2022 25.117 50.9212 25.0094 50.7071 24.7954C50.278 24.3662 50.278 23.6714 50.7071 23.2433L53.28 20.6715C53.7092 20.2423 54.403 20.2423 54.8321 20.6715C55.2613 21.1007 55.2613 21.7955 54.8321 22.2236L52.2592 24.7954C52.0452 25.0105 51.7642 25.117 51.4832 25.117Z" fill="#101010"/>
<path d="M23.2405 64.1179C22.4743 64.1179 21.7257 63.8391 21.1615 63.2749L0.914154 43.0286C-0.270217 41.8442 -0.195575 39.8421 1.0788 38.5666L11.883 27.7635C12.4824 27.1642 13.265 26.8074 14.086 26.7613C14.9323 26.7054 15.7633 27.0171 16.345 27.5989L16.4372 27.69C18.3515 23.239 14.3056 12.8277 9.1817 7.19014L8.62409 6.57545L9.06315 5.87075C10.5834 3.42957 12.3408 2.18043 14.4373 2.04981C17.9783 1.82699 22.2976 4.96189 28.0537 11.8826L37.9677 1.93675C38.8612 1.04107 40.0533 0.549316 41.3233 0.549316C42.5933 0.549316 43.7853 1.04107 44.6799 1.93566L45.1947 2.45046C46.0882 3.34395 46.581 4.536 46.581 5.80709C46.581 5.86197 46.5799 5.91795 46.5777 5.97284C48.0541 5.74782 49.5963 6.23847 50.6621 7.30429L51.1769 7.81909C52.1879 8.82894 52.6467 10.1856 52.5534 11.5094C53.9408 11.3492 55.3875 11.8047 56.4501 12.8672L56.9649 13.382C58.5905 15.0076 58.7881 17.5312 57.5565 19.3741C58.45 19.5486 59.3029 19.9822 59.9944 20.6726L60.5092 21.1874C61.4027 22.0809 61.8955 23.273 61.8955 24.5441C61.8955 25.8152 61.4038 27.0072 60.5092 27.9007L45.962 42.4436C43.2365 45.3106 39.7953 47.4533 36.8942 48.2019C37.7515 49.4016 37.5814 51.1513 36.4266 52.306L25.6224 63.1102C24.9539 63.7787 24.0857 64.1179 23.2405 64.1179ZM14.2639 28.9512C14.2441 28.9512 14.2265 28.9512 14.2101 28.9523C13.9335 28.9676 13.6503 29.1005 13.4362 29.3156L2.63199 40.1187C2.22037 40.5314 2.14463 41.1527 2.46734 41.4765L22.7147 61.7239C22.9046 61.9149 23.1626 61.9248 23.2965 61.9226C23.5742 61.9061 23.8563 61.7733 24.0714 61.5592L34.8756 50.755C35.2884 50.3423 35.363 49.721 35.0403 49.3983L31.7989 46.158L34.6363 46.293C37.1939 46.3995 41.309 44.1526 44.3912 40.9123L58.956 26.3475C59.4357 25.8679 59.6991 25.2279 59.6991 24.543C59.6991 23.8591 59.4357 23.2181 58.956 22.7384L58.4412 22.2236C57.4467 21.2303 55.8299 21.2292 54.8376 22.2203L54.8332 22.2236L53.2811 20.6716L55.4117 18.541C55.8914 18.0613 56.1548 17.4214 56.1548 16.7365C56.1548 16.0515 55.8914 15.4116 55.4117 14.9319L54.8969 14.4171C53.9024 13.4226 52.2834 13.4226 51.2889 14.4171L51.1747 14.5313L49.6248 12.977C50.1045 12.4973 50.368 11.8574 50.368 11.1724C50.368 10.4875 50.1045 9.84756 49.6248 9.36789L49.11 8.85309C48.1518 7.89483 46.4603 7.89373 45.5021 8.85309L45.2013 9.15494C45.2002 9.15604 45.198 9.15714 45.1969 9.15823H45.1958L43.6426 7.60615L43.647 7.60176C44.1245 7.12318 44.3868 6.48325 44.3868 5.8016C44.3868 5.11666 44.1234 4.47673 43.6437 3.99705L43.1289 3.48225C42.1707 2.524 40.4792 2.524 39.5209 3.48225L27.8891 15.1558L27.1218 14.2075C21.6181 7.41955 17.3735 4.04316 14.5712 4.24073C13.3945 4.31318 12.366 4.99263 11.3737 6.36141C16.9246 12.921 21.7707 25.3026 17.4449 30.1608L16.671 31.0301L14.7918 29.1509C14.625 28.983 14.4055 28.9512 14.2639 28.9512Z" fill="#101010"/>
<path d="M26.6642 40.5678C26.3832 40.5678 26.1022 40.4602 25.8882 40.2461L15.849 30.207C15.4198 29.7778 15.4198 29.0841 15.849 28.6549C16.2782 28.2257 16.9719 28.2257 17.4011 28.6549L27.4402 38.6941C27.8694 39.1232 27.8694 39.817 27.4402 40.2461C27.2262 40.4602 26.9452 40.5678 26.6642 40.5678Z" fill="#101010"/>
</svg>
