<svg width="60" height="60" viewBox="0 0 60 60" fill="none" xmlns="http://www.w3.org/2000/svg">
<path d="M51.3295 60H37.6389C37.0927 60 36.6493 59.5567 36.6493 59.0104V41.7058C36.6493 39.4594 34.8984 37.632 32.7464 37.632H26.8821C24.7301 37.632 22.9785 39.4594 22.9785 41.7058V59.0104C22.9785 59.5567 22.5358 60 21.9889 60H8.29959C7.75268 60 7.31 59.5567 7.31 59.0104V24.795H1.11649C0.692949 24.795 0.316906 24.5259 0.180342 24.1254C0.0431194 23.725 0.176384 23.2816 0.511525 23.023L29.2096 0.831824C29.5659 0.556059 30.0639 0.556059 30.4202 0.831824L59.1183 23.023C59.4528 23.2823 59.586 23.725 59.4495 24.1254C59.3122 24.5259 58.9362 24.795 58.5126 24.795H52.3191V59.0104C52.3191 59.5567 51.8758 60 51.3295 60ZM38.6285 58.0208H50.34V23.8055C50.34 23.2585 50.7833 22.8159 51.3295 22.8159H55.6151L29.8146 2.8651L4.01401 22.8159H8.29959C8.8465 22.8159 9.28918 23.2585 9.28918 23.8055V58.0208H21V41.7058C21 38.3682 23.6389 35.6528 26.8827 35.6528H32.7471C35.9903 35.6528 38.6292 38.3682 38.6292 41.7058V58.0208H38.6285Z" fill="#101010"/>
</svg>
