<svg width="68" height="100" viewBox="0 0 68 100" fill="none" xmlns="http://www.w3.org/2000/svg">
<path d="M34.1119 99.3384L33.2635 98.3011C26.6325 90.1894 20.546 81.7726 15.6614 73.9617C15.3409 73.448 15.4968 72.774 16.0094 72.4524C16.5231 72.1319 17.1982 72.2866 17.5187 72.8003C22.1453 80.2007 27.8663 88.1555 34.1109 95.872C44.2137 83.3774 65.5258 54.5913 65.5258 34.153C65.5258 16.8309 51.4341 2.73804 34.1109 2.73804C16.7887 2.73804 2.69593 16.8309 2.69593 34.153C2.69593 36.8104 3.07132 39.7554 3.81334 42.9046C3.95274 43.4929 3.58722 44.0824 2.99888 44.2218C2.41383 44.3579 1.82109 43.9956 1.68279 43.4062C0.902356 40.0924 0.506104 36.9783 0.506104 34.153C0.507201 15.6245 15.5824 0.549316 34.1119 0.549316C52.6415 0.549316 67.7167 15.6245 67.7167 34.1541C67.7167 55.8866 44.8097 86.2543 34.9604 98.3011L34.1119 99.3384Z" fill="#101010"/>
<path d="M48.0139 36.0569L48.0137 36.0568L28.1896 20.7274C27.8895 20.495 27.4699 20.495 27.1698 20.7274L7.34577 36.0567C7.34576 36.0567 7.34575 36.0567 7.34574 36.0567C7.0634 36.2746 6.9511 36.6481 7.06673 36.9856C7.18185 37.3229 7.49864 37.5495 7.85531 37.5495H11.9837V61.0352C11.9837 61.4953 12.3566 61.8688 12.8173 61.8688H22.2736C22.7343 61.8688 23.1072 61.4953 23.1072 61.0352V49.0813C23.1072 47.6063 24.256 46.4172 25.6538 46.4172H29.7047C31.1025 46.4172 32.2508 47.6063 32.2508 49.0813V61.0352C32.2508 61.4953 32.6242 61.8688 33.0844 61.8688H42.5417C43.0019 61.8688 43.3753 61.4953 43.3753 61.0352V37.5495H47.5036C47.8604 37.5495 48.1771 37.3228 48.2927 36.9856L48.2927 36.9854C48.4078 36.648 48.2954 36.2752 48.0139 36.0569ZM45.0629 35.8823H42.5417C42.0815 35.8823 41.7081 36.2552 41.7081 36.7159V60.2016H33.9184V49.0813C33.9184 46.697 32.0324 44.75 29.7052 44.75H25.6542C23.3266 44.75 21.4405 46.697 21.4405 49.0813V60.2016H13.6509V36.7159C13.6509 36.2553 13.2779 35.8823 12.8173 35.8823H10.2961L27.6795 22.4402L45.0629 35.8823Z" fill="#101010" stroke="#101010" stroke-width="0.3"/>
</svg>
