<svg width="31" height="71" viewBox="0 0 31 71" fill="none" xmlns="http://www.w3.org/2000/svg">
<path d="M29.966 32.111C29.966 30.9573 29.5983 29.8257 28.9034 28.84L19.7621 15.8492C19.0399 14.8218 17.8928 14.1193 16.5713 13.8504C16.321 6.68268 14.8337 2.4567 12.0072 0.765215C11.4869 0.454578 10.8152 0.62252 10.5034 1.14281C10.1928 1.662 10.3618 2.33596 10.881 2.6466C12.983 3.90451 14.1509 7.6552 14.3771 13.8152C12.9655 14.048 11.7317 14.768 10.9699 15.8503L1.82755 28.8422C1.13273 29.8301 0.766113 30.9606 0.766113 32.1176L0.919784 65.2328C0.919784 67.9198 3.47403 70.1064 6.61333 70.1064H24.4261C27.5654 70.1064 30.1196 67.9198 30.1196 65.2273L29.966 32.111ZM15.3671 22.2924C16.0631 22.2924 16.6294 22.8588 16.6294 23.5548C16.6294 24.2507 16.0631 24.8171 15.3671 24.8171C14.6712 24.8171 14.1048 24.2507 14.1048 23.5548C14.1048 22.8588 14.6712 22.2924 15.3671 22.2924ZM24.4272 67.9121H6.61443C4.68365 67.9121 3.114 66.7102 3.114 65.2262L2.96033 32.111C2.96033 31.4129 3.18974 30.7181 3.62221 30.1023L12.7646 17.1104C13.1312 16.589 13.7228 16.2268 14.4177 16.0479C14.4188 17.3651 14.3825 18.7789 14.3112 20.2815C12.9238 20.7305 11.9117 22.0191 11.9117 23.5548C11.9117 25.4592 13.4616 27.0091 15.366 27.0091C17.2705 27.0091 18.8215 25.4592 18.8215 23.5548C18.8215 22.0499 17.8489 20.781 16.5043 20.3079C16.5735 18.8348 16.6086 17.4474 16.6086 16.1434C17.1728 16.3442 17.6557 16.6648 17.9697 17.1104L27.111 30.1012C27.5434 30.7159 27.7728 31.4107 27.7728 32.1154L27.9265 65.2306C27.9276 66.7102 26.358 67.9121 24.4272 67.9121Z" fill="#101010"/>
</svg>
