<svg width="71" height="20" viewBox="0 0 71 20" fill="none" xmlns="http://www.w3.org/2000/svg">
<g clip-path="url(#clip0_1027_17320)">
<path d="M21.9005 0H18.7137V20H21.9005V0Z" fill="#303030"/>
<path d="M33.0545 13.6204C33.0545 16.6812 30.4915 16.9252 29.729 16.9252C27.8241 16.9252 27.4775 15.1348 27.4775 14.0548V6.40039H24.2906V14.0388C24.2906 15.9348 24.8834 17.4996 25.9223 18.5428C26.8401 19.4652 28.2153 19.9692 29.7051 19.9692C30.7616 19.9692 32.2578 19.6388 33.0545 18.9084V20.0004H36.2413V6.40039H33.0545V13.6204Z" fill="#303030"/>
<path d="M42.615 1.59961H39.4282V6.39961H37.0381V9.59961H39.4282V19.9996H42.615V9.59961H45.0052V6.39961H42.615V1.59961Z" fill="#303030"/>
<path d="M55.0414 15.9338C54.3475 16.5602 53.4312 16.9074 52.4258 16.9074C50.2093 16.9074 48.5816 15.273 48.5816 13.029C48.5816 10.785 50.1575 9.21936 52.4258 9.21936C53.4137 9.21936 54.3475 9.54976 55.0589 10.1762L55.5425 10.5938L57.6913 8.43696L57.1535 7.94976C55.8891 6.80336 54.2104 6.16016 52.425 6.16016C48.4414 6.16016 45.5486 9.04656 45.5486 13.0122C45.5486 16.961 48.5107 19.9506 52.425 19.9506C54.2439 19.9506 55.9401 19.3074 57.1885 18.1426L57.708 17.6554L55.5258 15.5002L55.0414 15.9338Z" fill="#303030"/>
<path d="M69.0659 7.5856C68.1481 6.664 67.0725 6.16 65.5827 6.16C64.5262 6.16 63.3296 6.4904 62.5329 7.22V0H59.346V20H62.5329V12.508C62.5329 9.4472 64.6983 9.204 65.4608 9.204C67.3657 9.204 67.3131 10.9952 67.3131 12.0736V20H70.5V12.0904C70.5 10.1944 70.1056 8.6296 69.0659 7.5856Z" fill="#303030"/>
<path d="M52.3206 10.75C53.5937 10.75 54.6255 11.7844 54.6255 13.0636C54.6255 14.3412 53.5937 15.3772 52.3206 15.3772C51.0482 15.3772 50.0173 14.3412 50.0173 13.0636C50.0181 11.7852 51.049 10.75 52.3206 10.75Z" fill="#FF3D2E"/>
<path d="M14.2521 14.9764C13.0403 16.2284 11.3943 16.9068 9.6622 16.9068C6.11205 16.9068 3.5307 14.1068 3.5307 10.2636C3.5307 6.40277 6.11205 3.60277 9.6622 3.60277C11.3775 3.60277 13.0052 4.28037 14.2353 5.51557L14.7197 6.00277L16.8501 3.86357L16.3825 3.37637C14.6162 1.54997 12.226 0.55957 9.6622 0.55957C4.43178 0.55957 0.5 4.73317 0.5 10.2804C0.5 15.8108 4.44931 19.9676 9.6622 19.9676C12.2435 19.9676 14.6337 18.9596 16.4 17.1332L16.8677 16.646L14.7548 14.4724L14.2521 14.9764Z" fill="#303030"/>
</g>
<defs>
<clipPath id="clip0_1027_17320">
<rect width="70" height="20" fill="white" transform="translate(0.5)"/>
</clipPath>
</defs>
</svg>
